/* XPM */
static char *_cf7ae041c64432cf3ea5976f4409ec9UL4btbpI0mL8ugcq[] = {
/* columns rows colors chars-per-pixel */
"32 32 8 1 ",
"  c None",
". c gray13",
"X c #D50000",
"o c #C62828",
"O c #E65100",
"+ c #558B2F",
"@ c #FF9800",
"# c #FFCA28",
/* pixels */
"                                ",
"                                ",
"               ...              ",
"             ..OOO.             ",
"            .OOOOO.             ",
"           .OOOO###.            ",
"          .OOO+###o.            ",
"         .OOO####oXo.           ",
"        .OOO#####ooX.           ",
"       .OOO#######Xo.           ",
"      .OOO###+#######.          ",
"      .OO######+#####.          ",
"     .OOO###ooo######.          ",
"     .OO##+ooXo####+##.         ",
"     .OO###oXXo#######.         ",
"      ..@@@#ooo#####Xo.         ",
"        ...@#####+#ooX.         ",
"           .#######oXX.         ",
"            #.@####XoXX.        ",
"            # #@####oo#.        ",
"            @ @.#@#+###.        ",
"                #.@@###.        ",
"                # ..@#@.        ",
"                #   .#.         ",
"                @    #          ",
"                     #          ",
"                     #          ",
"                     @          ",
"                                ",
"                                ",
"                                ",
"                                "
};
static char *_cf7ae041c64432cf3ea5976f4409ec9UL4btbpI0mL8ugcq[] = {
/* columns rows colors chars-per-pixel */
"32 32 8 1 ",
"  c None",
". c gray13",
"X c #D50000",
"o c #C62828",
"O c #E65100",
"+ c #558B2F",
"@ c #FF9800",
"# c #FFCA28",
/* pixels */
"                                ",
"                                ",
"               ...              ",
"             ..OOO.             ",
"            .OOOOO.             ",
"           .OOOO###.            ",
"          .OOO+###o.            ",
"         .OOO####oXo.           ",
"        .OOO#####ooX.           ",
"       .OOO#######Xo.           ",
"      .OOO###+#######.          ",
"      .OO######+#####.          ",
"     .OOO###ooo######.          ",
"     .OO##+ooXo####+##.         ",
"     .OO###oXXo#######.         ",
"      ..@@@#ooo#####Xo.         ",
"        ...@#####+#ooX.         ",
"           .#######oXX.         ",
"            #.@####XoXX.        ",
"            # #@####oo#.        ",
"            @ @.#@#+###.        ",
"                #.@@###.        ",
"                # ..@#@.        ",
"                #   .#.         ",
"                @    #          ",
"                     #          ",
"                     #          ",
"                     @          ",
"                                ",
"                                ",
"                                ",
"                                "
};
