/* XPM */
static char *_21abc372d114d34ce542b774c95ff6fofAQLeIgvzzgOtFi[] = {
/* columns rows colors chars-per-pixel */
"32 32 9 1 ",
"  c None",
". c black",
"X c #580D0D",
"o c #7C7800",
"O c #B71C1C",
"+ c #B2AC00",
"@ c #FFF700",
"# c #B2B2B2",
"$ c white",
/* pixels */
"       $$..............$$      $",
"      $......@@OO$$......       ",
"      ....@@@@@OO$$$$$....      ",
"    ....@@@@...XX...$$$$....    ",
"   ....@@@.....XX.....$$$....   ",
"  $..+@@.....$$OO@@.....$$#..   ",
"  ...@+....$$$$OO@@@@....#$...  ",
"$...@@...$$$$..XX..@@@@...$$...$",
"$..@@...#$$....XX....@@+...$$..$",
"...@@..$$#....@OO$....+@@..$$...",
"..@@...$$...@@@OO$$$...@@...$$..",
"..@@..$$...+@@.XX.$$#...@@..$$..",
"..@...$$..@@...XX...$$..@@...$..",
".@@..$$...@@...XX...$$...@@..$$.",
".@@..$$..@@...#@@#...$$..@@..$$.",
".OOXXOOXXOOXXX@oo@XXXOOXXOOXXOO.",
".OOXXOOXXOOXXX@oo@XXXOOXXOOXXOO.",
".$$..@@..$$...#@@#...@@..$$..@@.",
".$$..@@...$$...XX...@@...$$..@@.",
"..$...@@..$$...XX...@@..$$...@..",
"..$$..@@...#$$.XX.@@+...$$..@@..",
"..$$...@@...$$$OO@@@...$$...@@..",
"...$$..@@+....$OO@....#$$..@@...",
" ..$$...+@@....XX....$$#...@@..$",
" ...$$...@@@@..XX..$$$$...@@...$",
"  ...$#....@@@@OO$$$$....+@...  ",
"   ..#$$.....@@OO$$.....@@+..   ",
"   ....$$$.....XX.....@@@....   ",
"    ....$$$$...XX...@@@@....    ",
"      ....$$$$$OO@@@@@....      ",
"       ......$$OO@@......       ",
"       $$..............$$       "
};
