/* XPM */
static char *_5ed64130d584cf8f1a14df8f9d0789dWwqGJdwZhPPcP65c[] = {
/* columns rows colors chars-per-pixel */
"32 32 8 1 ",
"  c None",
". c black",
"X c #7B1FA2",
"o c #607D8B",
"O c #8E24AA",
"+ c #9C27B0",
"@ c #AB47BC",
"# c #BA68C8",
/* pixels */
"                                ",
"                                ",
"             .......            ",
"          ...ooooooo...         ",
"         .ooooooooooooo.        ",
"        .oooo.......oooo.       ",
"       .oo...@O#+#++...oo.      ",
"      .oo.#@@+OOOOO#+@@.oo.     ",
"     .oo.@##OO+OOOOOO@@@.oo.    ",
"    .oo.#O+OOOOXXXOOOO#@@.oo.   ",
"    .oo.OOOOOXXXXX+XO+@@@.oo.   ",
"    .oo.##OOOXXXOXXXXO++@.oo.   ",
"   .oo.OO@OXXXXXXXXXXX+@+#.oo.  ",
"   .oo.O#OOXOXXXOOXXXXOO@@.oo.  ",
"   .oo.OOOXXXXX+XXXXXXXO+@.oo.  ",
"   .oo.#@OXXXXXOXXXXXXOO@@.oo.  ",
"   .oo.OOOXXXXXXXXXXXX++@@.oo.  ",
"   .oo.OOOOXXXXXXOXXXX+++@.oo.  ",
"   .oo.#@OOXXXXXXXXXXXO##@.oo.  ",
"    .oo.#@@XXOXXXXXXXO++@.oo.   ",
"    .oo.#O@OOXXXXXXXX+#@@.oo.   ",
"    .oo.#O@#OOXXXXO+O@#@@.oo.   ",
"     .oo.#@@#@OO@+@+##@#.oo.    ",
"      .oo.###O@+####+@@.oo.     ",
"       .oo...#@@#@@#...oo.      ",
"        .oooo.......oooo.       ",
"         .ooooooooooooo.        ",
"          ...ooooooo...         ",
"             .......            ",
"                                ",
"                                ",
"                                "
};
