/* XPM */
static char *_f5f5bfe62ea49139e546ad8a87edfedbiz7ITiWSEweRrhR[] = {
/* columns rows colors chars-per-pixel */
"32 32 5 1 ",
"  c #9E3D20",
". c #C90000",
"X c #5F9C22",
"o c #9C8C21",
"O c #00FBFF",
/* pixels */
"OOOOOOOOOOOOOOOOOOOOOOOOOOOOOOOO",
"O..............................O",
"O.OOOOOOOOOOOOOOOOOOOOOOOOOOOO.O",
"O.O                          O.O",
"O.O OOOOOOOOOOOOOOOOOOOOOOOO O.O",
"O.O OooooooooooooooooooooooO O.O",
"O.O OoOOOOOOOOOOOOOOOOOOOOoO O.O",
"O.O OoOOOOOOOOOOOOOOOOOOOOoO O.O",
"O.O OoOXXXXXXXXXXXXXXXXXXOoO O.O",
"O.O OoOXOOOOOOOOOOOOOOOOXOoO O.O",
"O.O OoOXOOOOOOOOOOOOOOOOXOoO O.O",
"O.O OoOXOOOOOOOOOOOOOOOOXOoO O.O",
"O.O OoOXOOOXXOOOOOOXXOOOXOoO O.O",
"O.O OoOXOOOXXOOOOOOXXOOOXOoO O.O",
"O.O OoOXOOOXXOOOOOOXXOOOXOoO O.O",
"O.O OoOXOOOXXOOOOOOXXOOOXOoO O.O",
"O.O OoOXOOOXXOOOOOOXXOOOXOoO O.O",
"O.O OoOXOOOXXOOOOOOXXOOOXOoO O.O",
"O.O OoOXOOOOOOOOOOOOOOOOXOoO O.O",
"O.O OoOXOOOOXXXXXXXXOOOOXOoO O.O",
"O.O OoOXOOOOXXXXXXXXOOOOXOoO O.O",
"O.O OoOXOOOOXXXXXXXXOOOOXOoO O.O",
"O.O OoOXOOOOOXXXXXXOOOOOXOoO O.O",
"O.O OoOXOOOOOOOOOOOOOOOOXOoO O.O",
"O.O OoOXXXXXXXXXXXXXXXXXXOoO O.O",
"O.O OoOOOOOOOOOOOOOOOOOOOOoO O.O",
"O.O OooooooooooooooooooooooO O.O",
"O.O OOOOOOOOOOOOOOOOOOOOOOOO O.O",
"O.O                          O.O",
"O.OOOOOOOOOOOOOOOOOOOOOOOOOOOO.O",
"O..............................O",
"OOOOOOOOOOOOOOOOOOOOOOOOOOOOOOOO"
};
