/* XPM */
static char *e57b053e56384606b54066a5824da2d8D9HMHBalFmy3v3k2[] = {
/* columns rows colors chars-per-pixel */
"50 50 5 1 ",
"  c #FF5621",
". c #FF5423",
"X c #FF5523",
"o c #FF5820",
"O c #FF5823",
/* pixels */
"  ..  .O  . .O. .O    .O  O         .     .  .   .",
"   . .  O. .   . . .O.OOO O.OOO.OOO OOOO O O. OOOO",
"  .  O.   . . .  O.O. .   . .  O.O.  O O. . O   OO",
" . . . .O.   .O  .    O. . OO.   . . . .  O.. . O ",
".   . O .OO  O O.   .O.  .    . . .  .  . OO      ",
" . O O . OO  .  OO O   O. .O .O.  O . . O.. .  O O",
".O.OO .O.  OO    OO O O O  .      O O  OO O.O  .  ",
"   . .    O O..  . O O O. . .    .     O    O O   ",
". . . .O  .  .  . . OO.  .. . .  . . . .O O O O   ",
" O O   . ..   .  .   .  .  . .O.. . . .  O . O . O",
". O O . . O . . .O    .O O  .    .   . ..   .     ",
"OO OO O. .   . .   O.    . . . .. .O. . O. OO.O  O",
"  . .O. .O. .O.  .O     . . . .  . . .O.          ",
" . .   .   .   ..   .      . . .. . .        O O O",
".O  . . . . . .  . ..  O.   . .OO  . . .O. . . .  ",
" . . . . .O  .O .  O . .  O. .  . .  O.   .   OOO ",
" . . . . . . .     . . . . . . ..OO O O OO OO O OO",
". . . . . . . .O.O. . . . . . .  .  O. . .     .  ",
" . . . . . . . . . . . . . . . .  . OOO O .OO .  O",
" O. . . . . . . . . . . . . .  OO. .       OO.    ",
"  O  . . . . . . . . .O  .O. . .. . .   . .OO  O  ",
".O.   . . . . . . .  O. .   . .  .O  . OO.     . O",
" O O OO O. . .O. .O. . . . .O. .  . .O.O  .   .   ",
"O O O O O . .   .   . .  O.   . O. .   O OOO .O   ",
" .O O. . . . . . .   .O. . . . .  . . .    O O O. ",
"OO.   .  O.  O. .  O.   . . . . O.O O. ..O. O O  O",
"O  . .O  . . .   .OO .       O .. .   O OO O . O.O",
"  . . . O . . .O. . . OO.OOOOO.  O  OO      OOO  .",
"O.O.   . .   .O. .OO . .   . . .. .OO..  O   .OO  ",
"    .O. . .O.   .   . . .O.   .  . .    .O OO   O ",
" . . . . .O. . . . . .O. . . .O   .  ..O  O  O    ",
" O O. . .   . . . . .    O O. . O. .        . O  O",
"O. . . . . . . . . . . . . . . . .    O .O O .O  O",
"   O. . . . . . . . . . . . . . .  .       O.    O",
" . . . . . . . . . . . . . .O  .. . .O OO.O.O O O ",
". . . . . . . . . . . . . . . .  . . . .     O   O",
" . . . . . . . . . . . . . . .  .   .    O OO O  O",
". . . . . . . .  O. . . .  O. OO .OO OO  . . O O  ",
" .O    . . . . . .   .   . .O. ..O  .O  . O O    O",
".  O.O. . . .  O. .O. OO. .   .  . .OO O O O O   O",
"O O  O O .   . .   .O  . .     . O. .  OO OO O  O ",
" O OO O OOO . OOOO. . . . .O.O.  . . . .O..  O   O",
" .O  O O O O O O . . .O. . . .O .   .O     ..  .OO",
" O. .  OO O O    O. .   . . . .  .O O     .  O  . ",
"O O OOO   O  . .O O  O  O OO O OOOO      .  .  .  ",
" O O.   O   . OO O O O.OO        .O O .OO OOO     ",
" .O  .   O O OOOO O  . . . O O OO O  O O O .  .O  ",
"O . O OO. O O O  O O OO O O O OO O OO O O O O O OO",
" .O O        .O O O O O  O OO OO  . .       O O OO",
"OO O OOOO .O.  O O O O OO . . .  O OOOO.OOOO O OO "
};
