/* XPM */
static char *_9af8d8077124aa3fc59e7f90802b6152kxCBNXx6uOUK2Lo[] = {
/* columns rows colors chars-per-pixel */
"50 50 2 1 ",
"  c None",
". c #3F51B5",
/* pixels */
"                                                  ",
"                                                  ",
"                                                  ",
"                                                  ",
"                                                  ",
"                                                  ",
"                                                  ",
"                                                  ",
"                                                  ",
"                                                  ",
"                                                  ",
"                                                  ",
"                                                  ",
"                                                  ",
"                      .....                       ",
"                   ...     ...                    ",
"                 ..           ..                  ",
"                .               .                 ",
"               .    .       .    .                ",
"               .   . .     . .   .                ",
"              .    . .     . .    .               ",
"              .    . .     . .    .               ",
"              .     .       .     .               ",
"             .                     .              ",
"             .                     .              ",
"             .                     .              ",
"             .                     .              ",
"             .    .............    .              ",
"              .   .           .   .               ",
"              .    .         .    .               ",
"              .     .       .     .               ",
"               .     ..   ..     .                ",
"               .       ...       .                ",
"                .               .                 ",
"                 ..           ..                  ",
"                   ...     ...                    ",
"                      .....                       ",
"                                                  ",
"                                                  ",
"                                                  ",
"                                                  ",
"                                                  ",
"                                                  ",
"                                                  ",
"                                                  ",
"                                                  ",
"                                                  ",
"                                                  ",
"                                                  ",
"                                                  "
};
