/* XPM */
static char *_73a5d556b844cabe9cf711fd9475000UfdcgXrKE3svuppg[] = {
/* columns rows colors chars-per-pixel */
"64 64 43 1 ",
"  c None",
". c #61743A",
"X c #62753A",
"o c #61783D",
"O c #64783C",
"+ c #667A3C",
"@ c #687C3E",
"# c #637B40",
"$ c #647E42",
"% c #678245",
"& c #6B8040",
"* c #6E8442",
"= c #6A8849",
"- c #6C8D4E",
"; c #728845",
": c #7C944A",
"> c #709554",
", c #759E5B",
"< c #7CAA64",
"1 c #839D4E",
"2 c #8EAB53",
"3 c #82AC5F",
"4 c #87AE5C",
"5 c #8BAF5A",
"6 c #8DB058",
"7 c #8EB058",
"8 c #91B056",
"9 c #93B157",
"0 c #94B156",
"q c #94B157",
"w c #94B256",
"e c #94B257",
"r c #96B459",
"t c #97B45A",
"y c #98B65C",
"u c #99B65C",
"i c #9BB85F",
"p c #9EBB63",
"a c #A2BE69",
"s c #0022B8",
"d c #03A9F4",
"f c #00CCFF",
"g c white",
/* pixels */
"                                   ssssfgdddddgffsss            ",
"                                ssssssfggfffssggggdss           ",
"                               ssssfgfssssssssssssggssss        ",
"                               ssffgfss          sssgggss       ",
"                              ssffgfss             ssffgss      ",
"       sssssdddddfss          ssggffs               ssfgds      ",
"       sffgfsssssffs          sgfffss                ssfgs      ",
"       sfgffs   sgfs4<<<      <<<<<<<<                ssfs      ",
"       ssgfss   <<<<iy00<<  <<<aaaaay3<<<              sss      ",
"        sgfs  <<<aaapat0ee<<<aaaaaiataeq<<              sss     ",
"        ssgs <<aaaaaipi0090<<aaaaaiippqee<<             sgs     ",
"        ssgss<aaaaae0ir00e00<aaaaaiiypq9ee<   <<<<<<    sgss    ",
"        ssggssaaaapy0ptp0099<aa<<<7ii099qq< <<aaaayp36  sgfs    ",
"         sfgss<<<aaaaetta0qe<<<<ay75509wqq<<aaaaayyya373sgfs    ",
"         sffssaa<<apttyyeqqq<0aptiii5<0wq<aaaaaaaptyeyyesgfs    ",
"        <ssfsssaa<aatepyeqqq<0aaiiii00<0<aaaaaaaa0pattp0sgfs    ",
"       <aasffssaaaaaptii000<<0aipat9q0<q<aaaaaaaapye0ut0sgfs    ",
"       <aaasffsaaaaaitai0<<<0aaawyyt0qq<aaaaaaaaaaatt0ussffs    ",
"       <aaassfssaaaptyri0300aai0eiet04<<aaaaaaaaaaaya0ssffss    ",
"       <aaaasfgssaaityaryiaayy0rtt90w0aaaaaaaaaaaaiirssgsss<    ",
"       <<aaassfgsssaaippyappypytayi0q<aaaaaaaaaaaapassgssee<    ",
"        <<<<<sfggdssaipiyaptapeeyi00q<aaaaaaaaaaaatss0ssqee<    ",
"       <<aaassssggddsssssssaap5400000<aaaaaaaaaaasssfss0qqe<    ",
"      <<aaaasfffffggggssffssss3;50000<aaaaaapaayasffgsr0qq0<    ",
"      <aaassfgggggssssggggggfsssss00e<<sssassssssffgss0qqq<     ",
"      <<sssgsssssss05sssssssgggggsssssssdsssfffffggsse8qqq<     ",
"     ssssffssteyr0003;3qe0yesssfffggggffggffgggggsss00qqqq<     ",
"     sgfffss0pyti0003;;3etyt05sssssssdgggssssssssss000qqqq<     ",
"    ssffssspiit0ww9e<;;5eye0w2;;;<0asssdggsssss00qqqqqqqe<<     ",
"    sgsss <00000ww99<;:<0y0t5;;;<eaaaasssfggddssqqqqqqqq<<      ",
"    sfgs   <<000w009<;;<30a51;;;<eaaaaaassfggffss<qqqqq<<<      ",
"    sfgss   3<00w008<;;;<e<3;;;<<qaaaaaaasfgssffss<<<<3qee<     ",
"    ssfgsss   <<<ee0<;;;<<<;;;;<qaaaaaaaasfgssgffswwwww000<     ",
"    sssfgsss  sff<<<<;;;;;;;;;;<qaaaaaaaassfsssgfse8wwww00<     ",
"      ssfggssssgggs<;;;;;;;;;;;<qaaaaaaaassfsasgfssettty00<<    ",
"       sfffgfffsss<<;;;;;;;;;;;<<<aaaaaaasgdsassgfstwti0000<    ",
"       sssssgggsss<;;;;;;;;;;;;;;;<3<3aaasgdsaisgdsti0t0qqe<    ",
"           sssgfgss;;;;;;;*;*;;;**#*;$<,<sgdsaysgssy0ti0qqe<    ",
"             ssffgss;;;;;**;@O@*@@@*;@$*ssgds0ssfssetya0qqe<    ",
"              ssffgss;;**@.@&**@$@+@+$@@sgfdsysdfgsyiai0qq9<    ",
"              <sssfgss**&@*;&@**$$$>=,=ssgfsttssfgsaaaqeqq<<    ",
"              <;;sffgss;@OO%$o<%   >w0ssgfss0y0sfgsaaqqeqq<     ",
"             <;;;sssgds@@=-sgdfssssssssgfssyttesfgsqqq0eq<<     ",
"            <;;;;*@sfgs$#  ssggfffffsgggss0e0epsfgsqq<<<<fs     ",
"          <<;;;;*@*ssgss    sssggggggdfssyt0yppsfgs<<  sgfs     ",
"         <;;;;;;*@@$ssss      sssffffdss0ayyapasffss sssgfs     ",
"        3;;;;;@**+.,ssfs        ssssss<0000aaawssfgsssffgfs     ",
"       <;;;;;;;*@X==sgfs              <<<<0000<<sddffsfggds     ",
"      <;;;;;;**&**-ssgfs                 <<<<<  ssggfffgdss     ",
"      <;;;;;;&*;*=sssgfs                         ssgdddgss      ",
"      <;;;;*;@O&-%ssfsss                          ssfffds       ",
"       <;;*@@*;*,fggds                             ssssss       ",
"       <;;@*O+&-fggfss                                          ",
"        <*;OO@,-sffss                                           ",
"         >,*@O, ssss                                            ",
"           ,>>                                                  ",
"                                                                ",
"                                                                ",
"                                                                ",
"                                                                ",
"                                                                ",
"                                                                ",
"                                                                ",
"                                                                "
};
