/* XPM */
static char *ce0930015e9149ee80dcc4aaca558be79YKS0OvjAYvPUELL[] = {
/* columns rows colors chars-per-pixel */
"64 64 208 2 ",
"   c None",
".  c #4D791A",
"X  c #547B1C",
"o  c #597E1B",
"O  c #657D1F",
"+  c #4C7A20",
"@  c #4D7E2C",
"#  c #547A26",
"$  c #5B7D26",
"%  c #567629",
"&  c #537B2B",
"*  c #5E7F2F",
"=  c #4D7F36",
"-  c #537832",
";  c #667F24",
":  c #4C821D",
">  c #4E8913",
",  c #5D8E1C",
"<  c #59831B",
"1  c #5F911E",
"2  c #698E1D",
"3  c #64921C",
"4  c #79B41F",
"5  c #4B8B27",
"6  c #538124",
"7  c #5A8425",
"8  c #538A25",
"9  c #5C8C24",
"0  c #56852C",
"q  c #5C832B",
"w  c #5C8B2C",
"e  c #578B29",
"r  c #4A992A",
"t  c #579327",
"y  c #5B9126",
"u  c #5B922C",
"i  c #478836",
"p  c #528732",
"a  c #5C8332",
"s  c #538E33",
"d  c #5B8D33",
"f  c #57853A",
"g  c #4B9737",
"h  c #5A9133",
"j  c #569137",
"k  c #698526",
"l  c #638B24",
"z  c #62842B",
"x  c #6C852C",
"c  c #648B2C",
"v  c #698B2C",
"b  c #6A8E25",
"n  c #70892D",
"m  c #629325",
"M  c #63922D",
"N  c #68952E",
"B  c #628431",
"V  c #628B34",
"C  c #668835",
"Z  c #689733",
"A  c #46A83D",
"S  c #56AF3A",
"D  c #48B43D",
"F  c #5AB339",
"G  c #5EBA33",
"H  c #6EAF2F",
"J  c #7CAE2D",
"K  c #75AB28",
"L  c #6EB324",
"P  c #6AB42E",
"I  c #6BBC25",
"U  c #75B424",
"Y  c #7CB324",
"T  c #73B927",
"R  c #7ABB26",
"E  c #75B42D",
"W  c #7BB42D",
"Q  c #74BA2D",
"!  c #7BBA2C",
"~  c #64AC3D",
"^  c #7DAE30",
"/  c #7EAD39",
"(  c #6DB532",
")  c #6BB33A",
"_  c #6ABA35",
"`  c #75B533",
"'  c #7BB533",
"]  c #74B934",
"[  c #7DBA33",
"{  c #74B53A",
"}  c #7BB53B",
"|  c #7DBB3B",
" . c #74BB3A",
".. c #7CC232",
"X. c #77C33A",
"o. c #7FC13B",
"O. c #3DAF4F",
"+. c #3DB24B",
"@. c #34B745",
"#. c #3DB35D",
"$. c #37B955",
"%. c #4E8C43",
"&. c #588A41",
"*. c #4E9945",
"=. c #549648",
"-. c #45AC45",
";. c #4DAC45",
":. c #4CA44A",
">. c #46AF4C",
",. c #4BAC4A",
"<. c #53AC45",
"1. c #53AC4E",
"2. c #58A746",
"3. c #43B344",
"4. c #45B34B",
"5. c #4BB24C",
"6. c #4AB743",
"7. c #52B244",
"8. c #5FB444",
"9. c #52B34C",
"0. c #5AB04B",
"q. c #45AE55",
"w. c #4CAC54",
"e. c #4CAB5A",
"r. c #50A656",
"t. c #54AB54",
"y. c #5AAD55",
"u. c #53AD5B",
"i. c #56A75E",
"p. c #44B555",
"a. c #4CB253",
"s. c #4FB659",
"d. c #4AB857",
"f. c #51B253",
"g. c #59B352",
"h. c #56B559",
"j. c #63AE43",
"k. c #65B14C",
"l. c #73B742",
"z. c #7AB545",
"x. c #7DBB42",
"c. c #7DBC4D",
"v. c #77BD47",
"b. c #5C9B64",
"n. c #4DAE68",
"m. c #5CA464",
"M. c #58A765",
"N. c #63A168",
"B. c #7DC444",
"V. c #7CC14D",
"C. c #7FCB4D",
"Z. c #85B21B",
"A. c #85AE2D",
"S. c #83B525",
"D. c #82B926",
"F. c #83B52C",
"G. c #83BA2A",
"H. c #8CBA2A",
"J. c #8CB529",
"K. c #81AD34",
"L. c #80AC39",
"P. c #83B433",
"I. c #82BB34",
"U. c #82B53B",
"Y. c #83BC3B",
"T. c #8ABC3D",
"R. c #8CBA34",
"E. c #90BF3B",
"W. c #85C12D",
"Q. c #83C036",
"!. c #8AC137",
"~. c #83C23D",
"^. c #8BC43B",
"/. c #84B741",
"(. c #85BD42",
"). c #8BBE44",
"_. c #85BC4B",
"`. c #8BBD4B",
"'. c #94BE45",
"]. c #97BA4B",
"[. c #8BBF53",
"{. c #8FBF59",
"}. c #84BF53",
"|. c #93BD52",
" X c #91BE59",
".X c #85C243",
"XX c #8BC344",
"oX c #8BC944",
"OX c #84C44A",
"+X c #8BC34B",
"@X c #8BCB4C",
"#X c #87C846",
"$X c #92C344",
"%X c #92C34B",
"&X c #96C54C",
"*X c #80D04D",
"=X c #85C352",
"-X c #8BC352",
";X c #8EC952",
":X c #89C45B",
">X c #92C453",
",X c #93C659",
"<X c #0039F5",
"1X c #0039F5",
"2X c #00E9F5",
"3X c #00E9F5",
"4X c white",
"5X c white",
/* pixels */
"                                                                                                                                ",
"                                                                                                                                ",
"                                                                1X1X1X1X1X                                                      ",
"                                            1X1X1X1X1X1X1X  1X1X1X3X3X1X1X1X                                                    ",
"                                          1X1X1X1X3X1X1X1X1X1X1X4X4X4X3X3X1X1X        1X1X1X1X1X1X1X1X1X1X1X1X                  ",
"                                        1X1X1X3X3X3X1X1X4X4X4X4X4X3X3X4X4X1X1X  1X1X1X1X3X3X3X3X3X3X3X3X3X3X1X1X                ",
"                                      1X1X3X3X3X4X4X4X4X1X3X3X3X3X3X1X3X4X1X    1X1X3X3X3X4X4X4X4X4X4X4X4X4X4X1X1X              ",
"                                      1X3X3X4X1X1X1X1X1X1X1Xm.q.w.a.5.p.a.m.  1X1X3X3X4X4X4X1X1X1X1X1X1X1X3X4X4X1X1X            ",
"                                q.1.1X1X3X4X1X1X4.e.1X1Xu.p.D C.+XXX-XOX| j.t.p.+.4X4X1X1X1X1X          1X1X3X4X4X1X            ",
"                            t.w.0.1X1X4X4X1X1XE Y Y.,.y.9._.,X]..X).).XXQ..X} J 4X4X1X1X                  1X3X3X4X1X            ",
"                          ,.9.}.V.1X4X4X1X1XY.U T P.Y p.,.#X~.:XXX$X .T.U.XXG.( [ 5.$.                    1X1X3X4X1X            ",
"                          n.(.@X1X1X3X1X1XQ.W R.' ` F.Q 5.XX~.%X:X%XI.I.' Q.Y / E K.w.      5.+.a.7.5.w.  1X1X3X4X1X            ",
"                          4.+X!.1X4X3X1XI.I.` (.K.F.W ! q.:X;X,.-.a.` c.c.W ] ' E I.6.  t.e.%X;X+X=X} !.D 1X3X4X1X1X            ",
"                    4.u.1.-.s.1X1X3X3X1X=X[ ..| ^.` / W 2.e.A h.>XY.P P { ' S.F.Y  .>.<.@X X).(.}.G./.! 1X1X3X4X1X1X            ",
"                  p.>.+X-X|.#X>X1X3X3X1Xv.U Q.! I.U } R 9.P.*X/.] J.(.T._ 7.H | R r.+X#XT.+X:X#XoX(.R 1X1X3X3X1X1XM.            ",
"                f.`.@X(.$X+X(.#X1X3X3X1X[ R./.P.W } ` Q 0.] _.$X| B.F.~.P ` 0.U f. X.X#X>X).#X.XXX(.1X1X3X3X4X1XI.D n.          ",
"          1X1X5.-X`.&X%X.XXXXXXX1X3X1XXX.X} T.} ! U ' f.4.T +Xo./.C.] R ` ` 8.) ) V.-X`.+X-X-X+X#X1X1X3X3X4X4X1XU P.4.          ",
"        1X3X3X4.OXXXXX).XX-X=X1X1X3X1X.XY.| .Xo.U u.,.7.z.]. X.XS.H.[ H.D.{ ) j.c.=X+X+X%XXX(.+X+X1X3X3X4X3X1X1X' F.<.N.        ",
"        1X3X4Xg.[._.OXXX+X).XX1X4X3X1XT.' [ I.[ ] k. .L XX^.Y.D.[ | | } ` F 9.4.-X+X.XXX+XXXXX-X1X1X3X4X4X1X1XW Q U z.a.        ",
"      1X1X4X4XO.&X-XXXXX[.-X&X1X4X3X1XT.| Y.~.Y.U.I.E.-XI.W.{  .! ] F.F.F.` +X`.).@XXX).XX@X+XXX1X3X4X3X3X1XP.W P.R K.d.        ",
"    1X1X3X4X3Xm.4.+X&X).^.OX=X1X4X3X1X(.XX~..XY.Y.~.(.-X| ^.} U.-XT.| ' E 9.+XOX+X+XXX+XXX1X1X1X`.4X3X3X1X1XW W ' ..U -.1X1X    ",
"    1X1X4X  1X1Xf.#.>.9.p.t.OX1X4X3X1XY.XXY..X(.Y.#X!...OXT.! D.(.W W T W e.+X$X%X`.1X1X1X1XXX4X3X3X1X1X1XI.' W J } ' g.3X3X1X1X",
"    1X4X4X1X  m.9.XX'.+XOXS 9.1X4X3X1XY.).Y.(.XXU.+X| OX1X1X1X1X1X1X1X1X1X5.OX+X1X1X1X+X4X3X3X3X3X1X1X[ [ Q.Y.' F.` ' ;.4X4X3X1X",
"  1X3X4X  1Xu.4.`.;X.XXX:X}.%X1X4X3X1XT.T.Y.U.@X+XX.1X1X1X3X3X3X3X3X3X1X1X1X1X1X4X4X3X3X3X1X1X1X1XY.Y.W [ [ ' W U } ' w.3X4X4X1X",
"  1X3X4X1X  3.$X[.%XXXXX=X-X} 1X1X3X1X). .F 1X1X1X1X1X4X4X1X1X1X1X1X1X1X4X4X4X4X3X3X1X1X1X1X1X[ Y.[ P.Y.I.W ' ' J.) f.1X3X3X4X1X",
"  1X3X4X1X  M.3.!.+X_...Y.&XU.I.1X4X1X' _ 1X1X4X4X3X1X1X1X1Xm c c p.A.1X1X3X1X1X1X1X1XY..XY.(.`.| I.~.o.Y.' ` W F.I e.1X1X3X4X4X",
"  1X3X4X1X    n.@XOX] 1X1X3X[ } 1X4X1XE F 1X4X3X1X1X1X! | s., w c s.E 1X1X1X1X.X+X/.#XY.).P.T.(.| | ' W ' ' W [ ` F.w.  1X1X3X4X",
"  1X1X4X1X1X    M.(...1X4X4X] I.1X3X1X1X1X4X3X1X1X[ Q.] E ) l d z 4.Q P.)..X%XXXXX@XY.%X' .X^ ' F.] W ' ` W F.Y W U.-.    1X3X4X",
"    1X1X4X1X      a.oX1X3X3XI.P.1X3X4X1X4X3X1X1XF.[ F.Q W K M c d 7.' T.+X#X%XXX-X`.-XU..X[ ..L ` S.W W Z.S.{ W [ ;.u.    1X3X4X",
"    1X1X4X1X        w.1X3X4XR 1X1X3X3X1X4X3X1X7.{ I.I.` / 2 d l ;.} Q.+X=XB.>X=X^.XX^.Y.Y.1X1X1X1X1X1X1X} ' W ' ;.p.  1X1X1X1X4X",
"    1X1X4X1X          1X3X4X3X1X1X1X3X4X4Xc 1X2.0.! v.{ Z y 9 u a.[ '.-X-XXX1X1X1X1X1X1X1X1X3X3X3X3X3X1X1X1X1X1X1X1X1X1X3X4X4X3X",
"    1X1X4X1X1X        1X3X4X3X1XW 1X1X3Xr.1Xt d 5.W s.j.c u l t.q.F.OX`.1X1X1X3X3X3X3X3X4X4X4X4X4X4X3X3X3X3X3X3X3X3X3X3X4X3X3X3X",
"      1X3X4X1X      1X1X4X4X3X1Xs.P 1X3X4X1X1Xw ,.5.5.V l t c 5.' XX1X1X1X4X4X4X4X4X4X4X1X1X3X3X3X1X1X4X4X1X1X1X1X1X1X1X3X3X1X1X",
"      1X1X3X4X1X    1X1X4X3X1X1X  0.1X3X4X4X1X1Xw w d k l c z 1X1X1X1X4X3X3X1X1X1X3X4X4X1XXX1X1X1X1X1X1X1X1X' E ' 4 f.1X1X1X1X  ",
"        1X1X3X4X1X1X1X3X4X1X1X      1X1X3X4X4X1X1X1XN v 9 1X1X1X4X4X3X1X1X1X1XXX1X1X4X1X1XOX+XXXXX.XXX[ ' ' | I.E ! 8.b.        ",
"          1X1X3X4X4X4X4X1X1X        s.1X1X1X3X3X4X1X1X1X1X1X4X4X3X3X1X1XXX$X1X1X1X4X1X1X|.-X_..X.X| ~.W [ [ [ E W W _ e.        ",
"            1X1X3X3X1X1X1X1X        <.n m 1X1X1X3X3X4X1X1X4X4X3X1X1X1Xa.a.1X1X3X3X1X1XXX`.+X(.Y.(.Y.[ [ ~.[ I.! ' U W 4.        ",
"              1X1X1X1X            1.r d k n 7 1X1X3X3X4X1X4X3X1X1Xe ; ; 1X1X3X4X1X1X-X@X@X).| [ [ ' ! ! ' U ' ! A.W W 4.        ",
"                                  5.j l u d M l 1X1X3X4X4X4X1X1X# $ 6 1X1X3X4X1X1X8.+X)..XI.' W .X| W [ Y.T.~.W ' W W w.        ",
"                                e.C k , C 9 l d 8 1X1X4X4X3X1X1X7 # 1X1X3X4X4X1Xp 7._.P.X.R.[ [ } T.' Q.| .X.X' ' W Q u.        ",
"                            <.e.y c e 1 C 0 e q $ # w 1X1X3X3X1X1X1X1X1X3X4X1X1X=.Q ~./.' [ ..[ Y.R [ %X`.XXY T ` W w.6.        ",
"                            u.9 z u 9 q 9 C z 9 6 X % i 1X4X3X1X1X1X1X3X4X3X1XK.Q R ' W R x.} P.P.XXT.OX>XK.{ U.J I g.          ",
"                          +.l d c b q 7 q . $ > & g &.  1X1X3X3X3X3X3X4X4X1X1X| ' P./.Y.G.I.! F.G l.^ ] Y Y ' K.J.,.#.          ",
"                        ,.b v w w 0 o $ $ e q p f       1X4X3X3X4X4X4X4X1X1XU.' =X.XW F.W ' | ] u.:.7.' ] 4.9.4.,.              ",
"                    h.t.d t l t V . l p % 6 g           1X4X3X1X1X1X4X1X1X[ _...[ _.' G.Y.x.OXT 9.3X1X4.w.                      ",
"                  3.d w e 2 z b 7 o f 6 g *.            1X1X4X1X1X1X4X1X5.{ ' K.Z.).} | ~.Q.$X' t.3X1X                          ",
"                t.u z m N 9 $ e l & % *.g                 1X4X1X1X3X4X1X  3.9.' T [ R ).>X^.l.2.4X3X1X                          ",
"              N.d 3 l B m q u * 0 . 5 f                 1X1X4X1X1X3X4X1X    e.f.a.t.` W K.' 7.1X4X3X1X                          ",
"            4.u w v 9 z M z w * z 0 i               1X1X1X4X1X1X1X3X4X1X          M.h.7.@.i.  1X4X1X1X                          ",
"            p.k w M , M c . t e 8 j               1X1X3X3X4X1X  1X3X4X1X                    1X1X4X1X                            ",
"            M.9 v d 9 q N @ X < r 1X            1X1X3X4X4X1X1X  1X1X4X4X1X                1X1X3X4X1X                            ",
"              7.b e x * . w n q *.1X1X1X1X1X1X1X1X3X4X4X1X1X      1X1X4X1X1X              1X3X3X1X1X                            ",
"              i., u d # ; o 0 g 3X3X4X4X4X3X4X4X4X4X1X1X          1X1X3X4X1X1X          1X1X3X4X1X                              ",
"                >.z l o : 6 *.%.1X3X3X3X3X3X1X1X1X1X1X              1X1X4X4X1X1X1X1X1X1X1X1X4X1X                                ",
"                  =.-.* - . :.  1X1X1X1X1X1X1X                        1X1X1X4X4X4X4X4X4X4X4X4X1X                                ",
"                      A A =.                                              1X3X3X3X3X3X3X3X1X1X1X                                ",
"                                                                            1X1X1X1X1X1X1X1X                                    ",
"                                                                                                                                ",
"                                                                                                                                ",
"                                                                                                                                ",
"                                                                                                                                ",
"                                                                                                                                ",
"                                                                                                                                ",
"                                                                                                                                "
};
