/* XPM */
static char *a2b6b709fa614803ef581cbce2927b65OF4gMnRo3qArC3Ah[] = {
/* columns rows colors chars-per-pixel */
"64 64 48 1 ",
"  c None",
". c #527723",
"X c #527823",
"o c #547B24",
"O c #567D24",
"+ c #577F25",
"@ c #4D822D",
"# c #598327",
"$ c #5C8728",
"% c #4D8630",
"& c #4D8C34",
"* c #4D9139",
"= c #4C993F",
"- c #608C2A",
"; c #68982B",
": c #6B8A3A",
"> c #6DA12B",
", c #75AF2C",
"< c #7AB72D",
"1 c #7BB52E",
"2 c #7BB52F",
"3 c #7AB62E",
"4 c #7AB72E",
"5 c #7BB72E",
"6 c #75A63B",
"7 c #6EB535",
"8 c #63B33E",
"9 c #6AB438",
"0 c #6AB439",
"q c #71B533",
"w c #75B530",
"e c #74B531",
"r c #7DB932",
"t c #7EB934",
"y c #7FBB36",
"u c #4CA347",
"i c #5AB145",
"p c #4CAF50",
"a c #7FB342",
"s c #80BB37",
"d c #82BC3B",
"f c #86BF41",
"g c #8BC34A",
"h c #051CAC",
"j c #0412B3",
"k c cyan",
"l c #7DFBFD",
"z c white",
/* pixels */
"                            jjjjj    jjj jjjj                   ",
"                          jjjkkkjjjjjjkkjjjjj                   ",
"        jjjjjjjjj         j kzzzzzzzzjjjkkj                     ",
"       jjjkkkkkjjjjj     jkzzjjjjjjkzzzjjzjjjj    jjjjjj        ",
"       jjkzzzzzzzzjjj  jjjkzjj    jjjjkzjzzzzjjjjjjkkjjjj       ",
"      jjkzjjjjjjjjzzjj jkkzjj       jjkzjjkkkzjjkkzzzzzzjj      ",
"      jkzjj      jkkzjjjkzjj         jkzjjjjkzzzzjjjjjjzzzjj    ",
"      jzjj        jjipppkjj   pppppppjjzzj jzkjjjj    jjkzzjj   ",
"      jzj       ppppds11pp  pppgggggdipjzj jzkj        jjkzjj   ",
"      jzjj    pppgggffr111pppgggggdgsg3jzj jzkj         jkzzjj  ",
"      jzkj   ppgggggdfd1141ppgggggdddf1jzjpjzjj         jjkzjj  ",
"      jzkjj  pgggggr1dtr2314pgggggddsf3jzjpjzjpppppp     jkzjj  ",
"      jjzkj  pggggfdrdtd2211pggpppqdd11jzjpjppggggsdi0   jkzzj  ",
"      jjzkjjpppppggggrttg211ppppgsq001jjzjppgggggtsdgi7i jjjzjj ",
"       jjzzjjgggppgfttdst213p1gfrddd0pjkzjgggggggftsrss2ppjjzkj ",
"        jkkzjjjggpgfrrdd3223p1ggdddd1jjkzjgggggggrffttf31ppjzkj ",
"       pjjlkzzjjjjggfrdd<<1pp1gddgr41jkzzjgggggggfsr4sr11jjjzkj ",
"       pgjjjjjzzzzggdrgd1ppp1ggg4ydr1jkzjjggggggggftr4jjjjkzjjj ",
"       pgggggjjjjjgftsrd1i11ggd4rdrr4jkzjjgggggggggdg1jkkkzzj   ",
"       pgggggggggggdtsgrydggyy4rrr411jjzjjggggggggddrzzzzzzjj   ",
"       ppggggggggggggdffygdfygyrgsd21jzzjgggggggggfg2jjjjjjj    ",
"        ppppppgggggrgdfddgfygdyrsd221jzkjgggggggggsrtrr4222p    ",
"       ppggggppggdgrdgfgrgdggd081122jjzkjggggggggfdrsg22223p    ",
"      ppggggggggtdrgdtdggdffgii-9111jjzkjgggdggdfdrrr2r2221p    ",
"      pgggggggttssggdi81ggdggp;-$p2jjzzjggggdsrsd1yyd22222p     ",
"      ppggfddgtdrr<<0;84dsrdgp$--p2jkzjjgdgsfddgdygyd31222pjj   ",
"       pggdftr4y1<11i-irr1yrrp---pjjzzjggfgsfrdsrr11222222pkjj  ",
"        pfsdrdyts<1<i-$i1rsr40---jjkzjjgggdg2g222412222222pzkj  ",
"         pgfddt11143p$-04sr1w,---jkkzjgggggdgd22222222221ppzzj  ",
"         jp111114111p-;p1r<r0$--pjkzjjggggddsggp22222222ppjjzj  ",
"         jkpp1111111p--pi4g9>---pjklljjjjjjjdgg2pp22222pppjjzj  ",
"         jkkip111114p---p1pi---pjjzllzzzkkkjjjj222ppppi223jjzj  ",
"         jjkzzjjj231p---ppp----jjzzzllllzzzzzkjjjj<1111111jkzj  ",
"          jkkzzzjjjjjjjjj-----jjzzzkjjjjjjjjjzzzzjjjj1141jjzjj  ",
"          jjkkjjzzzzkkkkjjjjjjjzzkkjjggggggggjjjzzzzjjjjjjzjj   ",
"           jjjjjjjjzzzzzzzzjjzzkkkjjgggggggggggjjjjzzzzzzzjj    ",
"                  jjjjjjjjzzzkkkjjjpppggggggggdsddjjkkkjjjjp    ",
"                 p-------jjjjjjjj$+$-#pupgggggsdr2rrjjjj233p    ",
"                 p-------$$-+o+$++##$+#$$pggg414g1<rrsg2221p    ",
"             jjjp------$$+.+#$$+#+o#o#++#pgrdsd4rgrssgd2221p    ",
"          jjjkkkjjj--$$$#:$:::$$@@@=&u&uu1ydrrd4sttggg2222pp    ",
"         jkzzzzzkkjj-$$-+:::::p%   =111131y31d1ysdfgg22222p     ",
"        jzzkkjjzzzzjjj++::kzkj     u16ahhrdyrtre812222132pp     ",
"       jkzjjjj-jjjzzzjjjjkzzjj     =hhhhzz1r1rd1ppp22pppp       ",
"       jkzpp----$jjkzzkjjkzjj      hhzzzllt1ddf1ppppph          ",
"       jkp------$+jjjzkjzkzj       hzzllhhttggg,phhlzh          ",
"       jp-----#$$oXujjzzzzjj       hzlhhh11ggg<pphhhzzhh        ",
"       p-------##X&& jjkkzzjj      hzlhppp11<<pplh hlzhh        ",
"      p------$$#$$*   jjjkzzjjjjj  hzhh  pppphlzlh hhzzh        ",
"      p------#$-$&      jjjzzzzkj  hzhhh    hhlzhh  hlzh        ",
"      p----$-+o#*%        jjjkkj  hhzzzhh   hlzhh   hhzh        ",
"       p--$++$-$u           jjjj   hhlzzhh  hhzh    hhhh        ",
"       p--##++#&jj                  hhlzzhhhhzzh   hhzhh        ",
"        p$-++ou*kj                   hhhhzzzzzhh hhhzlh         ",
"         =u#+oukkj                     hhllzlllhhhzzllh         ",
"           u==zzkj                      hhlllzzzzzzllhh         ",
"             jkzjj                       hhhhhhhhhhhhh          ",
"             jkzj                                hhhh           ",
"             jjzj                                               ",
"                                                                ",
"                                                                ",
"                                                                ",
"                                                                ",
"                                                                "
};
