/* XPM */
static char *_70a21641c224d1fb288bf0c9194f8bfX9voK7RKZAhOnzxT[] = {
/* columns rows colors chars-per-pixel */
"64 64 5 1 ",
"  c None",
". c #3D5B69",
"X c gray45",
"o c #607D8B",
"O c gray62",
/* pixels */
"                                                                ",
"                                                                ",
"                                                                ",
"                                                                ",
"                                                                ",
"                                                                ",
"                           ooooooooooo                          ",
"                        ooooooooooooooooo                       ",
"                     oooooooOOOOOOOOOooooooo                    ",
"                   ooooooOOOOOOOOOOOOOOOoooooo                  ",
"                  ooooOOOOOOoooooooooOOOOOOoooo                 ",
"                 oooOOOOOOooXXXX..XXXooOOOOOOooo                ",
"               ooooOOOOoooXXXXXXX.XXXXXoooOOOOoooo              ",
"              ooooOOOooXXXXXXXXXX..XXXXXXXooOOOoooo             ",
"             oooOOOOoXXXXXXXXXXXXX.XXXXXXXXXoOOOOooo            ",
"            oooOOOooXXXXXXXXXXXXXX.XXXXXXXXXXooOOOooo           ",
"            ooOOOoXXXXXXXXXXXXXXXX.XXXXXXXXXXX.oOOOoo           ",
"           oooOOoXXXXXXXXXXXXXXXXXX.XXXXXXXXXX.XoOOooo          ",
"          oooOOo.....XXXXXXXXXXXXXX.XXXXXXXXXX.XXoOOooo         ",
"         oooOOOoXXXXX....XXXXXXXXXX.XXXXXXXXXX.XXoOOOooo        ",
"         ooOOOoXXXXXXXXXX..XXXXXXXX.XXXXXXXXXX.XXXoOOOoo        ",
"        oooOOoXXXXXXXXXXXXX.XXXXXXX.XXXXXXXXX.XXXXXoOOooo       ",
"        ooOOOoXXXXXXXXXXXXXX.XXXXXX.XXXXXXXXX.XXXXXoOOOoo       ",
"        ooOOoXXXXXXXXXXXXXXXX.XXXXX.XXXXXXXXX.XXXXXXoOOoo       ",
"       oooOOoXXXXXXXXXXXXXXXXX.XXXX.XXXXXXXXX.XXXXXXoOOooo      ",
"       ooOOOoXXXXXXXXXXXXXXXXX.XXXX.XXXXXXXX.XXXXXXXoOOOoo      ",
"       ooOOoXXXXXXXXXXXXXXXXXXX.XXX.XXXXXXXX.XXXXXXXXoOOoo      ",
"      oooOOoXXXXXXXXXXXXXXXXXXX.XX..XXXXXXX.XXXXXXXXXoOOooo     ",
"      ooOOoXXXXXXXXXXXXXXXXXXXX.XX.XXXXXXX.XXXXXXXXXXXoOOoo     ",
"      ooOOoXXXXXX...........XXXX.X.XXXXXX.XXXXXXXXXXXXoOOoo     ",
"      ooOOoXX....XXXXXXXXXX....X...XXXX..XXXXXXXXXXXXXoOOoo     ",
"      ooOOo...XXXXXXXXXXXXXXXX....XX...XXXXXXXXXXXXXXXoOOoo     ",
"      ooOOo.XXXXXXXXXXXXXXXXX.......XXXXXXXXXXXXXXXXX.oOOoo     ",
"      ooOOoXXXXXXXXXXXXXXX...XX....XXXXXXXXXXXXXXXX...oOOoo     ",
"      ooOOoXXXXXXXXXXXXX..XXXX...X....XXXXXXXXXX....XXoOOoo     ",
"      ooOOoXXXXXXXXXXXX.XXXXXX.X.XXXX...........XXXXXXoOOoo     ",
"      ooOOoXXXXXXXXXXX.XXXXXXX.XX.XXXXXXXXXXXXXXXXXXXXoOOoo     ",
"      oooOOoXXXXXXXXX.XXXXXXX..XX.XXXXXXXXXXXXXXXXXXXoOOooo     ",
"       ooOOoXXXXXXXX.XXXXXXXX.XXX.XXXXXXXXXXXXXXXXXXXoOOoo      ",
"       ooOOOoXXXXXXX.XXXXXXXX.XXXX.XXXXXXXXXXXXXXXXXoOOOoo      ",
"       oooOOoXXXXXX.XXXXXXXXX.XXXX.XXXXXXXXXXXXXXXXXoOOooo      ",
"        ooOOoXXXXXX.XXXXXXXXX.XXXXX.XXXXXXXXXXXXXXXXoOOoo       ",
"        ooOOOoXXXXX.XXXXXXXXX.XXXXXX.XXXXXXXXXXXXXXoOOOoo       ",
"        oooOOoXXXXX.XXXXXXXXX.XXXXXXX.XXXXXXXXXXXXXoOOooo       ",
"         ooOOOoXXX.XXXXXXXXXX.XXXXXXXX..XXXXXXXXXXoOOOoo        ",
"         oooOOOoXX.XXXXXXXXXX.XXXXXXXXXX....XXXXXoOOOooo        ",
"          oooOOoXX.XXXXXXXXXX.XXXXXXXXXXXXXX.....oOOooo         ",
"           oooOOoX.XXXXXXXXXX.XXXXXXXXXXXXXXXXXXoOOooo          ",
"            ooOOOo.XXXXXXXXXX.XXXXXXXXXXXXXXXXXoOOOoo           ",
"            oooOOOooXXXXXXXXXX.XXXXXXXXXXXXXXooOOOooo           ",
"             oooOOOOoXXXXXXXXX.XXXXXXXXXXXXXoOOOOooo            ",
"              ooooOOOooXXXXXXX..XXXXXXXXXXooOOOoooo             ",
"               ooooOOOOoooXXXXX.XXXXXXXoooOOOOoooo              ",
"                 oooOOOOOOooXXX..XXXXooOOOOOOooo                ",
"                  ooooOOOOOOoooooooooOOOOOOoooo                 ",
"                   ooooooOOOOOOOOOOOOOOOoooooo                  ",
"                     oooooooOOOOOOOOOooooooo                    ",
"                        ooooooooooooooooo                       ",
"                           ooooooooooo                          ",
"                                                                ",
"                                                                ",
"                                                                ",
"                                                                ",
"                                                                "
};
