/* XPM */
static char *e4593f968ced4a2ce2facdf81f13713f2FTxIquIhDirEahl[] = {
/* columns rows colors chars-per-pixel */
"32 32 3 1 ",
"  c None",
". c black",
"X c #607D8B",
/* pixels */
"                                ",
"                                ",
"             .......            ",
"          ...XXXXXXX...         ",
"         .XXXXXXXXXXXXX.        ",
"        .XXXX.......XXXX.       ",
"       .XX...       ...XX.      ",
"      .XX.             .XX.     ",
"     .XX.               .XX.    ",
"    .XX.                 .XX.   ",
"    .XX.                 .XX.   ",
"    .XX.                 .XX.   ",
"   .XX.                   .XX.  ",
"   .XX.                   .XX.  ",
"   .XX.                   .XX.  ",
"   .XX.                   .XX.  ",
"   .XX.                   .XX.  ",
"   .XX.                   .XX.  ",
"   .XX.                   .XX.  ",
"    .XX.                 .XX.   ",
"    .XX.                 .XX.   ",
"    .XX.                 .XX.   ",
"     .XX.               .XX.    ",
"      .XX.             .XX.     ",
"       .XX...       ...XX.      ",
"        .XXXX.......XXXX.       ",
"         .XXXXXXXXXXXXX.        ",
"          ...XXXXXXX...         ",
"             .......            ",
"                                ",
"                                ",
"                                "
};
