/* XPM */
static char *_d0595a8d337443bae29e083dec79987Ut2YCH2cAYou3S7b[] = {
/* columns rows colors chars-per-pixel */
"64 64 176 2 ",
"   c None",
".  c #C20000",
"X  c #C30800",
"o  c #C90C00",
"O  c #C61200",
"+  c #C91300",
"@  c #C71800",
"#  c #CA1C00",
"$  c #D21B00",
"%  c #CA2400",
"&  c #CC2B00",
"*  c #C22D0F",
"=  c #D52300",
"-  c #D82600",
";  c #D32800",
":  c #DC2C00",
">  c #CE3400",
",  c #CF3900",
"<  c #C1300D",
"1  c #D33500",
"2  c #D13C00",
"3  c #D93D07",
"4  c #C53C14",
"5  c #E03300",
"6  c #E43900",
"7  c #E83F00",
"8  c #D14200",
"9  c #D84400",
"0  c #D64B00",
"q  c #DE4C00",
"w  c #DF580A",
"e  c #C64513",
"r  c #C6481C",
"t  c #D45B14",
"y  c #E64600",
"u  c #EB4600",
"i  c #E24F00",
"p  c #EC4B00",
"a  c #E55100",
"s  c #E95500",
"d  c #EF5A00",
"f  c #F45D00",
"g  c #FB5F00",
"h  c #E25B12",
"j  c #DB6614",
"k  c #DA7010",
"l  c #DB7814",
"z  c #EF6B07",
"x  c #E66608",
"c  c #FF6600",
"v  c #FD6C03",
"b  c #F97106",
"n  c #FF7E00",
"m  c #FE740D",
"M  c #F6790B",
"N  c #FE7C14",
"B  c #FF8700",
"V  c #F78B00",
"C  c #FF8F00",
"Z  c #F2800F",
"A  c #FF9F00",
"S  c #EF8613",
"D  c #EF8914",
"F  c #ED8E19",
"G  c #F18312",
"H  c #FE841C",
"J  c #F78A1D",
"K  c #E8971D",
"L  c #E79A1F",
"P  c #FE991C",
"I  c #FCA303",
"U  c #FFAA04",
"Y  c #FEAB08",
"T  c #FFB100",
"R  c #FFBB01",
"E  c #FEB909",
"W  c #E6AB1F",
"Q  c #F4A414",
"!  c #EBB918",
"~  c #EDBD16",
"^  c #F1B111",
"/  c #FEB817",
"(  c #F8B11F",
")  c #F78023",
"_  c #FD8B24",
"`  c #E49F21",
"'  c #FD942A",
"]  c #FE982E",
"[  c #FE9525",
"{  c #ED9033",
"}  c #FE9D33",
"|  c #F29F3E",
" . c #E3A324",
".. c #E6A629",
"X. c #E8A82C",
"o. c #FEAD24",
"O. c #FEA329",
"+. c #FEAC2E",
"@. c #FEBF29",
"#. c #F7B727",
"$. c #F1AA36",
"%. c #FEA43A",
"&. c #FEA83E",
"*. c #F3B33E",
"=. c #FFC202",
"-. c #F7CC00",
";. c #FFCB00",
":. c #F2CA0F",
">. c #FED401",
",. c #FEDA02",
"<. c #F6D30B",
"1. c #FADA0C",
"2. c #FED50D",
"3. c #EFC214",
"4. c #F1C612",
"5. c #F2C910",
"6. c #FCC71F",
"7. c #FEDF14",
"8. c #FEDB1B",
"9. c #FEE503",
"0. c #FFEA00",
"q. c #FEE30B",
"w. c #FEEA0C",
"e. c #FEE012",
"r. c #FEEB12",
"t. c #FEEC1B",
"y. c #FBC629",
"u. c #FED724",
"i. c #FED822",
"p. c #FED32B",
"a. c #FECF34",
"s. c #FEC93D",
"d. c #FDEC22",
"f. c #FCED2A",
"g. c #FCED32",
"h. c #FBEE3B",
"j. c #EF9E43",
"k. c #F8AF48",
"l. c #F3B441",
"z. c #FEB247",
"x. c #F7B847",
"c. c #FDB54A",
"v. c #FDBA4C",
"b. c #F9BC46",
"n. c #FEBF53",
"m. c #FEC644",
"M. c #FEC841",
"N. c #FEC24B",
"B. c #FDC256",
"V. c #FBEF44",
"C. c #FBEF4D",
"Z. c #FFF04E",
"A. c #FAF055",
"S. c #FAF05E",
"D. c #FCCF63",
"F. c #F9F165",
"G. c #FCF26C",
"H. c #F9E378",
"J. c #F8F277",
"K. c #F8ED82",
"L. c #F8F381",
"P. c #F8F489",
"I. c #FAF592",
"U. c #F9F69F",
"Y. c #F9F6A6",
"T. c #FAF7AD",
"R. c #FAF8B5",
"E. c #FBF8BC",
"W. c #FCF6BC",
"Q. c #FBFACB",
"!. c #FDFAD2",
"~. c #FDFBDB",
"^. c #FDFCE2",
"/. c #FFFDEF",
"(. c #FEFDF0",
"). c #FFFFFF",
/* pixels */
"                                                                                                                                ",
"                                                                                                                                ",
"                                            . . .                                                                               ",
"                                          . , , 1 .                                                                             ",
"                                          . 2 0 0 .                                                                             ",
"                                          . 8 0 9 .                                                                             ",
"                                          . 8 a g . . . . . . . . .                                                             ",
"                                            o o + . 1 > > > > > > > .               . . . . .                                   ",
"                                            . . . . 0 9 9 0 0 8 0 1 X               X o X X X                                   ",
"                                    . . . . . . . 4 c c c c c c c f 8 . . . .   . + 8 c 9 8 8 .                                 ",
"                                  . * * * * * 3 s j.;.;.=.k.&.&.&.&.| p p u > . . . O $ + % 8 .                                 ",
"                                  X 4 e e r r h m B.0.0.q.v.B.B.B.B.B.v c f 8 . . X . X X @ 2 .                                 ",
"                      . . . . . . c c I 0.P.P.P.P.P.0.0.0.0.P.P.P.P.P.n.H c c 8 8 i c c c y . .                                 ",
"                  . @ & & & X $ u %.R p.S.~.~.~.~.~.S.f.w.S.~.~.~.~.~.H.c.%.%.d d z F %.k.N u u o         . . .                 ",
"                  . @ 8 8 8 X : c n.9.h.P.).).).).).P.h.r.P.).).).).).P.D.n.n.c c M  .n.n.} c c o .       . . .                 ",
"                  . - c c . -.u.B.0.L.E.).).).).).).).W.P.P.).).).).).P.f.0.0.n.N M  .0.9.8.n.c c 6 . .   . . .                 ",
"                  . # a a . V o.n.0.L.W.).).).).).).).E.P.P.).).).).).P.f.0.0.u.E A M p.q.q.u.] v u % % .                       ",
"                  . $ a a . V o.n.0.L.E.).).).).).).).E.P.P.).).).).).P.f.0.0.u.E I S p.9.q.u.] v u % % .                       ",
"                  . @ 8 8 . f _ n.0.L.W.).).).).).).).E.P.P.).).).).).P.f.0.0.0.9.=.c n.e.0.0.B.m s 8 8 .                       ",
"                      . . 8 c A 0.0.L.W.).).).).).).).E.J.0.P.P.P.P.P.0.0.0.0.0.M.%.c n.n.a.0.0.m.} c c .                       ",
"                      . . 8 ) / 0.0.V.I.).).).).).).).W.J.0.V.V.V.V.V.0.0.0.0.p.O.P U n.*.#.3.p.p.( S S : X                     ",
"                      . . 8 z.p.0.0.0.G.).).).).).).).W.J.0.0.0.0.0.0.0.0.0.0.n.N C 9.n.X. . .B.q.:. . .c X .                   ",
"                      . . c ,.0.0.0.0.h.P.).).).).).P.h.0.0.0.0.0.0.0.0.0.7.n.0.0.8.B.N.B.*. . .9.5. . .c c 6 .                 ",
"                      . . s y.7.0.u.9.d.C.Q.Q.Q.Q.Q.C.d.0.0.0.0.0.0.0.0.0.q.p.0.0.q.a.p.p.y.3.3.5.!  . .Z c p :                 ",
"          . . .       . . 8 k.p.0.n.9.0.0.P.P.P.P.P.0.0.0.0.0.0.0.0.0.0.0.0.0.0.0.0.0.0.0.0.0.0.W  . . . .c c c .               ",
"          . . .   . @ 8 8 c z.n.B.B.9.0.0.0.0.0.0.0.0.0.0.0.0.0.0.0.0.0.0.d.P.P.P.S.0.0.0.0.0.0.0.:. . . . .D c .               ",
"            . .   . @ 8 8 c y.M.n.n.u.e.0.0.0.0.0.0.0.0.0.0.0.0.7.8.0.0.d.A.R.R.R.P.g.0.0.0.0.0.<.^ F F ~  .S c .               ",
"                  . @ 8 8 c ,.u.n.n.B.p.0.0.0.0.0.0.0.0.0.0.0.0.a.m.0.0.S.Y.).).).~.P.0.0.0.0.0.W D c c 0. .D c .               ",
"                  . = c c c ,.0.0.0.N.n.n.0.0.0.0.0.n.n.n.n.c c } m.0.0.S.Y.).).).~.P.0.0.0.0.P.r.u.B.n.c ` t .                 ",
"                  . = c c c ,.0.0.0.N.n.n.0.0.0.0.0.n.n.n.n.c c } m.0.0.S.Y.).).).~.P.0.0.0.0.P.w.u.n.n.c ` t .                 ",
"                  . = f f c ,.0.0.0.s.m.n.7.7.7.7.7.n.z.z.x.N N +.a.0.0.V.P.^.^.^.E.F.0.0.0.0.F.w.8.s.s.N  .j $                 ",
"                  . @ 8 8 c ,.0.0.0.0.u.n.n.n.n.n.n.n._ v ` n.n.8.0.0.0.0.d.P.P.P.S.0.0.0.0.0.0.0.0.0.0.n...G c .               ",
"                      8 8 c ,.0.0.0.m.*.......l.n...m v v  .K.K.W.^.~.J.f.0.r.r.r.w.0.0.0.0.0.0.F.J.J.J.q.b.] c , .             ",
"                      8 8 c =.,.1.e.b.$.K  .X.l.v.X.b v v  .U.U.~.).).U.g.0.0.0.0.0.0.0.0.0.0.0.J.P.P.P.0.N.} c 8 .             ",
"                  . @ 8 8 c c G  .B...S c  .n.n.n.n. .M v  .).).).).).).A.0.0.0.0.0.0.0.0.0.0.0.J.P.P.P.0.N.] c 8 .             ",
"                  . = f c ;.;.,.1.v.x.$.K b m m m m b S `  .).).).).).).Z.0.0.0.0.0.0.M.q.0.0.0.r.t.t.t.M.e.Y c 8 .             ",
"                  . = c c 0.t.t.t.m.B.l...v v b b b v F ...././.).).).(.Z.0.0.0.w.w.r.N.2.,.q.0.0.9.q.q.m.,.I c 8 .             ",
"                  . - c c 0.^.).).0.N.n.n. . . . . .` l.n.n.P.P.Q.).).P.f.0.0.0.F.P.P.0.B H n.0.0.u.n.n.0.v c c 8 .             ",
"                  . - c c 0.~.).).0.7.p.n.x.x.x.x.x.<.7.8.B.d.d.J.Y.Y.P.f.0.0.0.F.P.P.0.;.Y N s.s.N.B.n.B c d q o               ",
"                  . = c c 0.!././.0.0.u.N.v.n.n.N.B.,.9.q.N.0.0.A.P.I.I.g.0.0.0.F.L.L.0.0.R v v.v.v.v.v.c c a 2 .               ",
"                  . @ 8 8 0.0.0.0.0.0.0.0.c n.n.n.B.c T 0.0.0.0.A.U.).).T.F.0.0.0.0.0.0.0.0.0.c c c c c c 8 % .                 ",
"                  . @ 8 8 0.0.0.0.0.0.0.0.c n.n.n.n.c U 0.0.0.0.A.Y.).).T.F.0.0.0.0.0.0.0.0.0.c c c c c c 0 % .                 ",
"                  . @ 8 8 C C T 0.0.0.<.! R 8.a.n.n.c T 0.0.S.S.T.~.).).^.E.S.0.0.0.0.0.p.#.C q q a q q q + O                   ",
"                  . @ 8 8 c c A 0.0.0.:. .0.0.p.n.B.c U 0.0.P.P.!.).).).).^.P.0.0.0.0.0.m.} c 8 8 8 8 8 8 . .                   ",
"                      . . 8 c Z  .0.b M  .0.0.4. .n.c ] N.0.P.P.!.).).).).^.P.0.0.8.n.n.n.{ 8 8 X . . . .                       ",
"                      % % 8 q z Z 3.D S Z I 3.Q G _ D J [ p.h.h.P.Q.).).Q.U.h.0.0.8.n.n.p.Q s 8 X O % % % X                     ",
"                      8 8 8 8 a c  . .S c c  .G c c  .Z m n.0.0.A.Y.).).T.F.0.0.0.8.n.n.e.R c 8 X @ 8 8 8 . .                   ",
"                      . . 8 8 a c c ` S c 8 8 8 8 8 8 l L c 0.0.0.0.0.0.0.0.0.0.0.8.n.c c c c 8 X @ 8 8 8 . .                   ",
"                    + % % s & = 5 s k x a % % # % % # w M c p.p.p.p.p.u.p.p.u.p.p.@.' s s y 5     @ % % % X                     ",
"                  . @ 0 0 c o . . 8 8 8 8 . . . . . . 6 c c B.B.B.n.n.B.n.n.n.B.n.%.c 8 8 % .       . . .                       ",
"                  . # 0 0 0 X .   . . . .             . o c c c c c c c c c c 8 8 & . . . .                                     ",
"                    @ & & & X     . . . .               o 6 6 6 p s s s s s s % % # . . .                                       ",
"                      . . .                               . . . % 8 8 8 8 8 8 . . .           . . .                             ",
"                      . . .                               . . . & 8 8 8 8 8 8 . . .           . . .                             ",
"                                                                . . . . . .                   . . .                             ",
"                                                                  . . . .                     . .                               ",
"                                                                                                                                ",
"                                                                                                                                ",
"                                                                                                                                ",
"                                                                                                                                ",
"                                                                                                                                ",
"                                                                                                                                ",
"                                                                                                                                ",
"                                                                                                                                "
};
