/* XPM */
static char *_643729032710[] = {
/* columns rows colors chars-per-pixel */
"64 64 29 1 ",
"  c black",
". c #1E1E1E",
"X c gray21",
"o c #72301B",
"O c #754C1B",
"+ c #7B722F",
"@ c gray30",
"# c #4E4E4E",
"$ c gray43",
"% c gray44",
"& c #D50000",
"* c #A34526",
"= c #A76D27",
"- c #EA6337",
"; c #EF9C38",
": c #B0A343",
"> c #FCEA60",
", c #57AFB1",
"< c #3D87CB",
"1 c #2196F3",
"2 c #64B6F7",
"3 c #7DFBFD",
"4 c #9B9B9B",
"5 c gray62",
"6 c #B2B2B2",
"7 c #A4FCFE",
"8 c #BFFDFE",
"9 c white",
"0 c None",
/* pixels */
"00000000000000000            00000000000000000000000000000000000",
"00000000000000000 X######### 00000000000000000000000000000000000",
"00000000000000000 ##%%%%%%%%    00000000000000000000000000000000",
"00000000000000000 #%555555%%    00000000000000000000000000000000",
"00000000000000000 #%511115%%    00000000000000000000000000000000",
"00000000000000000 #%511115%% 00000000000000000000000000000000000",
"00000000000000000 #%511115%% 00000000000000000000000000000000000",
"00000000000000000 #%511115%% 00000000000000000000000000000000000",
"00000000000000000 #%511115%% 00000000000000000000000000000000000",
"00000000000000000 #%555555%% 00000000000000000000000000000000000",
"00000000000000                                 00000000000000000",
"00000000000000  ###%%%%%%%%%%%%%%%%%%%%%%%%%%X #%%%0000000000000",
"0000000::=;;--  #%%%%%%%%%%%%%%%%%%%%%%%%%%%%X$#### 000000000000",
"0000000>>;;;--  #%55555555555555555555555555%X$     000000000000",
"0000000>>;==**  #%%%%%%%%%%%%%%%%%%%%%%%%%%%%X$#### 000000000000",
"0000000>>;==**  #%%%%%%%%%%%%%%%%%%%%%%%%%%%%X$#### 000000000000",
"00000000000000  ###%%%%%%%%%%%%%%%%%%%%%%%%%%X #%%%0000000000000",
"00000000000000                                 00000000000000000",
"000000000       4%%%%%%%%%%%%%%%%%%% ,3 , 3 33 00000000000000000",
"000000000       44444444444%%%%%%%%%    3      00000000000000000",
"000000000                            ,3 3 ,, 3 00000000000000000",
"0000=O=o*   $$$$$$$$$$$$873,,55$$$555     ,3 3 00000000000000000",
"0000==;--   $5555555555$8733,55$$$555                00000000000",
"00:>;;;--   $533333,,,5$8733355$#..  6666666666666699 0000000000",
"00>>;;;--   $57777733,5$8777855$$666 6999999999999999 0000000000",
"00::===**   $588887333558888855$$699                    00000000",
"000000000     5558777777$$$$$55$            666666669999 9000000",
"000000000     5558888888$&&&$55$ 9999999999 699999999999 9000000",
"0000000++O==**   $$$$$$$$&&&$$$$$6666666666$                0000",
"0000000+:;;;--  99$$$$$$$$$$$$$$$$$$$$$<<<599  6666666999999 000",
"0000000:>;;;--  99111111111111111111111111199  6999999999999 000",
"0000:+:>>;;;--  99222222222222222222222222299                 00",
"0000:+:>>;;;--  99222222222222222222222222299                 00",
"0000000:>;;;--  99111111111111111111111111199  6999999999999 000",
"0000000+:;;;--  99$$$$$$$$$$$$$$$$$$$$$<<<599  6666666999999 000",
"0000000++O==**   $$$$$$$$&&&$$$$$6666666666$                0000",
"000000000     5558888888$&&&$55$ 9999999999 699999999999 9000000",
"000000000     5558777777$$$$$55$            666666669999 9000000",
"00::===**   $588887333558888855$$699                    00000000",
"00>>;;;--   $57777733,5$8777855$$666 6999999999999999 0000000000",
"00:>;;;--   $533333,,,5$8733355$#..  6666666666666699 0000000000",
"0000==;--   $5555555555$8733,55$$$555                00000000000",
"0000=O=o*   $$$$$$$$$$$$873,,55$$$555     ,3 3 00000000000000000",
"000000000                            ,3 3 ,, 3 00000000000000000",
"000000000       44444444444%%%%%%%%%    3      00000000000000000",
"000000000       4%%%%%%%%%%%%%%%%%%% ,3 , 3 33 00000000000000000",
"00000000000000                                 00000000000000000",
"00000000000000  ###%%%%%%%%%%%%%%%%%%%%%%%%%%X #%%%0000000000000",
"00000000000000  ###%%%%%%%%%%%%%%%%%%%%%%%%%%X #%%%0000000000000",
"0000000>>;==**  #%%%%%%%%%%%%%%%%%%%%%%%%%%%%X$#### 000000000000",
"0000000>>;;;--  #%55555555555555555555555555%X$     000000000000",
"0000000::=;;--  #%%%%%%%%%%%%%%%%%%%%%%%%%%%%X$#### 000000000000",
"00000000000000  ###%%%%%%%%%%%%%%%%%%%%%%%%%%X #%%%0000000000000",
"00000000000000                                 00000000000000000",
"00000000000000000 #%555555%% 00000000000000000000000000000000000",
"00000000000000000 #%511115%% 00000000000000000000000000000000000",
"00000000000000000 #%511115%% 00000000000000000000000000000000000",
"00000000000000000 #%511115%% 00000000000000000000000000000000000",
"00000000000000000 #%511115%% 00000000000000000000000000000000000",
"00000000000000000 #%511115%%    00000000000000000000000000000000",
"00000000000000000 #%555555%%    00000000000000000000000000000000",
"00000000000000000 ##%%%%%%%%    00000000000000000000000000000000",
"00000000000000000 X######### 00000000000000000000000000000000000",
"00000000000000000            00000000000000000000000000000000000"
};
