/* XPM */
static char *_643729039733[] = {
/* columns rows colors chars-per-pixel */
"64 64 29 1 ",
"  c black",
". c #1E1E1E",
"X c gray21",
"o c #72301B",
"O c #754C1B",
"+ c #7B722F",
"@ c gray30",
"# c #4E4E4E",
"$ c gray43",
"% c gray44",
"& c #D50000",
"* c #A34526",
"= c #A76D27",
"- c #EA6337",
"; c #EF9C38",
": c #B0A343",
"> c #FCEA60",
", c #57AFB1",
"< c #3D87CB",
"1 c #2196F3",
"2 c #64B6F7",
"3 c #7DFBFD",
"4 c #9B9B9B",
"5 c gray62",
"6 c #B2B2B2",
"7 c #A4FCFE",
"8 c #BFFDFE",
"9 c white",
"0 c None",
/* pixels */
"00000000000000000000000000000000000            00000000000000000",
"00000000000000000000000000000000000 #########X 00000000000000000",
"00000000000000000000000000000000    %%%%%%%%## 00000000000000000",
"00000000000000000000000000000000    %%555555%# 00000000000000000",
"00000000000000000000000000000000    %%511115%# 00000000000000000",
"00000000000000000000000000000000000 %%511115%# 00000000000000000",
"00000000000000000000000000000000000 %%511115%# 00000000000000000",
"00000000000000000000000000000000000 %%511115%# 00000000000000000",
"00000000000000000000000000000000000 %%511115%# 00000000000000000",
"00000000000000000000000000000000000 %%555555%# 00000000000000000",
"00000000000000000                                 00000000000000",
"0000000000000%%%# X%%%%%%%%%%%%%%%%%%%%%%%%%%###  00000000000000",
"000000000000 ####$X%%%%%%%%%%%%%%%%%%%%%%%%%%%%#  --;;=::0000000",
"000000000000     $X%55555555555555555555555555%#  --;;;>>0000000",
"000000000000 ####$X%%%%%%%%%%%%%%%%%%%%%%%%%%%%#  **==;>>0000000",
"0000000000000%%%# X%%%%%%%%%%%%%%%%%%%%%%%%%%###  00000000000000",
"0000000000000%%%# X%%%%%%%%%%%%%%%%%%%%%%%%%%###  00000000000000",
"00000000000000000                                 00000000000000",
"00000000000000000 33 3 , 3, %%%%%%%%%%%%%%%%%%%4       000000000",
"00000000000000000      3    %%%%%%%%%44444444444       000000000",
"00000000000000000 3 ,, 3 3,                            000000000",
"00000000000000000 3 3,     555$$$55,,378$$$$$$$$$$$$   *o=O=0000",
"00000000000                555$$$55,3378$5555555555$   --;==0000",
"0000000000 9966666666666666  ..#$5533378$5,,,333335$   --;;;>:00",
"0000000000 9999999999999996 666$$5587778$5,33777775$   --;;;>>00",
"00000000                    996$$558888855333788885$   **===::00",
"0000009 999966666666            $55$$$$$7777778555     000000000",
"0000009 999999999996 9999999999 $55$&&&$8888888555     000000000",
"0000                $6666666666$$$$$&&&$$$$$$$$   **==O++0000000",
"000 9999996666666  995<<<$$$$$$$$$$$$$$$$$$$$$99  --;;;:+0000000",
"000 9999999999996  99111111111111111111111111199  --;;;>:0000000",
"00                 99222222222222222222222222299  --;;;>>:+:0000",
"00                 99222222222222222222222222299  --;;;>>:+:0000",
"000 9999999999996  99111111111111111111111111199  --;;;>:0000000",
"000 9999996666666  995<<<$$$$$$$$$$$$$$$$$$$$$99  --;;;:+0000000",
"0000                $6666666666$$$$$&&&$$$$$$$$   **==O++0000000",
"0000009 999999999996 9999999999 $55$&&&$8888888555     000000000",
"0000009 999966666666            $55$$$$$7777778555     000000000",
"00000000                    996$$558888855333788885$   **===::00",
"0000000000 9999999999999996 666$$5587778$5,33777775$   --;;;>>00",
"0000000000 9966666666666666  ..#$5533378$5,,,333335$   --;;;>:00",
"00000000000                555$$$55,3378$5555555555$   --;==0000",
"00000000000000000 3 3,     555$$$55,,378$$$$$$$$$$$$   *o=O=0000",
"00000000000000000 3 ,, 3 3,                            000000000",
"00000000000000000      3    %%%%%%%%%44444444444       000000000",
"00000000000000000 33 3 , 3, %%%%%%%%%%%%%%%%%%%4       000000000",
"00000000000000000                                 00000000000000",
"0000000000000%%%# X%%%%%%%%%%%%%%%%%%%%%%%%%%###  00000000000000",
"000000000000 ####$X%%%%%%%%%%%%%%%%%%%%%%%%%%%%#  **==;>>0000000",
"000000000000 ####$X%%%%%%%%%%%%%%%%%%%%%%%%%%%%#  **==;>>0000000",
"000000000000     $X%55555555555555555555555555%#  --;;;>>0000000",
"000000000000 ####$X%%%%%%%%%%%%%%%%%%%%%%%%%%%%#  --;;=::0000000",
"0000000000000%%%# X%%%%%%%%%%%%%%%%%%%%%%%%%%###  00000000000000",
"00000000000000000                                 00000000000000",
"00000000000000000000000000000000000 %%555555%# 00000000000000000",
"00000000000000000000000000000000000 %%511115%# 00000000000000000",
"00000000000000000000000000000000000 %%511115%# 00000000000000000",
"00000000000000000000000000000000000 %%511115%# 00000000000000000",
"00000000000000000000000000000000000 %%511115%# 00000000000000000",
"00000000000000000000000000000000    %%511115%# 00000000000000000",
"00000000000000000000000000000000    %%555555%# 00000000000000000",
"00000000000000000000000000000000    %%%%%%%%## 00000000000000000",
"00000000000000000000000000000000000 #########X 00000000000000000",
"00000000000000000000000000000000000            00000000000000000"
};
