/* XPM */
static char *_643729026234[] = {
/* columns rows colors chars-per-pixel */
"64 64 29 1 ",
"  c black",
". c #1E1E1E",
"X c gray21",
"o c #72301B",
"O c #754C1B",
"+ c #7B722F",
"@ c gray30",
"# c #4E4E4E",
"$ c gray43",
"% c gray44",
"& c #D50000",
"* c #A34526",
"= c #A76D27",
"- c #EA6337",
"; c #EF9C38",
": c #B0A343",
"> c #FCEA60",
", c #57AFB1",
"< c #3D87CB",
"1 c #2196F3",
"2 c #64B6F7",
"3 c #7DFBFD",
"4 c #9B9B9B",
"5 c gray62",
"6 c #B2B2B2",
"7 c #A4FCFE",
"8 c #BFFDFE",
"9 c white",
"0 c None",
/* pixels */
"0000000000000000000000000000000000000000000000000000000000000000",
"0000000000000000000000000000000000000000000000000000000000000000",
"0000000000000000000000000000000  0000000000000000000000000000000",
"00000000000000000000000000000      00000000000000000000000000000",
"0000000000000000000000000000 99  99 0000000000000000000000000000",
"0000000000000000000000000000 99  99 0000000000000000000000000000",
"0000000000000000000000000099 99  99 9900000000000000000000000000",
"00000000000000000000000000   99  99   00000000000000000000000000",
"0000000000000000000000000 99 99  99 99 0000000000000000000000000",
"0000000000000000000000000 99 99  99 99 0000000000000000000000000",
"00000000000000000000000   99 69  96 99   00000000000000000000000",
"0000000000000000000000 99 99 69  96 99 99 0000000000000000000000",
"000000000000    000000 99 69 69  96 96 99 0000000   000000000000",
"00000000000%# ##%00000 69 69 69  96 96 96 00000%%# #%00000000000",
"00000000000%# ##%00000 69 69 69  96 96 96 00000%%# #%00000000000",
"00000000000%# ##%00000 69 69 69  96 96 96 00000%%# #%00000000000",
"00000000000## ###00000 69 69 66  66 96 96 00000### ##00000000000",
"0000000000  $$$$       69 69        96 96        $$$  0000000000",
"0000000000 XXXXXX 3 33 69 69        96 96 33 3 XXXXXX 0000000000",
"0000000000 %%%%%% 3    69 66 999999 66 96    3 %%%%%% 0000000000",
"0000000000 %%5%%%   ,3 69   $999999$   96 3,   %%%5%% 0000000000",
"0000000000 %%5%%% 3 ,, 69  9651221569  96 ,, 3 %%%5%% 0000000000",
"0000000000 %%5%%%      69  96<1221<69  96      %%%5%% 0000000000",
"0000000000 %%5%%% ,33  69  96<1221<69  96  33, %%%5%% 0000000000",
"0000000000 %%5%%%      69  96<1221<69  96      %%%5%% 0000000000",
"0000000000 %%5%%% 3 3  69  96$1221$69  96  3 3 %%%5%% 0000000000",
"0000000000 %%5%%% , ,  66  96$1221$69  66  , , %%%5%% 0000000000",
"0000000000 %%5%%%    55    96$1221$69    55    %%%5%% 0000000000",
"0000000000 %%5%%% %% 55 69 96$1221$69 96 55 %% %%%5%% 0000000000",
"0000000000 %%5%%% %% 55.69 96$1221$69 96.55 %% %%%5%% 0000000000",
"0000000000 %%5%%% %% $$.66 96$1221$69 66.$$ %% %%%5%% 0000000000",
"0000000000 %%5%%% %% $$#$$  $$1221$$  $$#$$ %% %%%5%% 0000000000",
"00   00000 %%5%%% %% $$$$$$$$$1221$$$$$$$$$ %% %%%5%% 00000   00",
"00   00000 %%5%%% %% 5555555$$1221$$5555555 %% %%%5%% 00000   00",
"00   00000 %%5%%% %% 5555555$$1221$$5555555 %% %%%5%% 00000   00",
"           %%5%%% %% ,,388$$$$1221$$$$883,, %% %%%5%%           ",
" #%%%%%%%% %%5%%% %% ,3378$&&$1221$&&$8733, %% %%%5%% %%%%%%%%# ",
" #%%%%%%%% %%5%%% %4 33378$&&$1221$&&$87333 4% %%%5%% %%%%%%%%# ",
" #%5555555 %%5%%% %4 77778$&&$1221$&&$87777 4% %%%5%% 5555555%# ",
" #%5111115 %%5%%% %4 88888$$$$1221$$$$88888 4% %%%5%% 5111115%# ",
" #%5111115 %%5%%% %4 $$$$578$$1221$$875$$$$ 4% %%%5%% 5111115%# ",
" #%5111115 %%5%%% %4 $555578$$1221$$875555$ 4% %%%5%% 5111115%# ",
" #%5111115 %%5%%% %4 $5,,378$$1221$$873,,5$ 4% %%%5%% 5111115%# ",
" #%5555555 %%5%%% %4 $5,3378$$1221$$8733,5$ 4% %%%5%% 5555555%# ",
" ##%%%%%%% %%5%%% %4 $5,3378$$1221$$8733,5$ 4% %%%5%% %%%%%%%## ",
" X######## #%5%%# %4 $537778$$1221$$877735$ 4% ##%5%# ########X ",
"           #%%%%# %4 $537888$999999$888735$ 4% ##%%%#           ",
"0000000000 ###### 44 $537855 999999 558735$ 44 ###### 0000000000",
"0000000000           $537855        558735$           0000000000",
"0000000000           $537855        558735$           0000000000",
"000000000000--**00   $5555  *------*  5555$   000*--000000000000",
"000000000000--**00   $$$$$  *------*  $$$$$   000*--000000000000",
"000000000000;;==00          =;;;;;;=          000=;;000000000000",
"000000000000;;==00          =;;;;;;=          000=;;000000000000",
"000000000000=;;;00          O;;;;;;O          000;;=000000000000",
"000000000000:>>>00000*---*00+:>>>>:+00*---*000000>>:000000000000",
"000000000000:>>>00000o---*00++:>>:++00*---o000000>>:000000000000",
"000000000000000000000=;;;=00000::00000=;;;=000000000000000000000",
"000000000000000000000O=;;=00000++00000=;;=O000000000000000000000",
"000000000000000000000==;;=00000::00000=;;==000000000000000000000",
"00000000000000000000000>>:000000000000:>>00000000000000000000000",
"00000000000000000000000:>:000000000000:>:00000000000000000000000",
"0000000000000000000000000000000000000000000000000000000000000000",
"0000000000000000000000000000000000000000000000000000000000000000"
};
