/* XPM */
static char *a607d0f0ff564ae4a1f702d2878c786feFB8WA3Q1LW7Nfi4[] = {
/* columns rows colors chars-per-pixel */
"32 32 40 1 ",
"  c None",
". c black",
"X c gray10",
"o c #1E1E1E",
"O c gray12",
"+ c #252525",
"@ c gray18",
"# c #353535",
"$ c #1F2858",
"% c #363E69",
"& c gray29",
"* c gray30",
"= c #515151",
"- c gray34",
"; c #5F5F5F",
": c #686868",
"> c gray43",
", c #7C7C7C",
"< c gray49",
"1 c #BA791A",
"2 c #B3443C",
"3 c #F44336",
"4 c #F5564A",
"5 c #9AA43E",
"6 c #FF9800",
"7 c #FFA31A",
"8 c #CDDC39",
"9 c #D2E04D",
"0 c #1769AA",
"q c #2F78B3",
"w c #424D8B",
"e c #5363BD",
"r c #898989",
"t c gray62",
"y c gray66",
"u c #B2B2B2",
"i c gray73",
"p c #E8EAF6",
"a c #EAECF7",
"s c white",
/* pixels */
"             ....               ",
"            ..uu..              ",
"            .uuuu.              ",
"            ..uu.X              ",
"         ..XXiiiiXXXX           ",
"         Xyyyyy<<<<<X           ",
"         Xy0qqqww%%<X           ",
"         Xyeewww%%$<X           ",
"         XyyyyXX<<<<X           ",
"        XXssss..uiii.X          ",
"        XsssssXXiiuui.          ",
"        Xs...sXXiaaaiX          ",
"        .ss.ssXXiipii.          ",
"        .sXX.sXXiaaaiX          ",
"        .ssXssX.iuaiiX     @ @  ",
"        XsXXXu.Xuaaai.   @ @    ",
"        .ss.ss.XiiaiiX    @@@   ",
"        XsXXXsXXiaaau.  .  .  . ",
"        XssXssXXuiau<X @   @  . ",
"        .sX..sXXiaaprX+    .. . ",
"        Xss.ssXXiiar=XO   . . @ ",
"        Xs...sXXipap=X.   +  @  ",
"        Xss.ssXXiiar=X   @  @@ .",
"        .sX..sXXupaa#X    @ .  .",
"        .ssssssii::=OX@   . @ @ ",
"       ...ssssX.-==#XXX  @@ . @ ",
"      ..t..ssX...::XX;.X@  @    ",
"     ..ttt.XX.>&XXXX*&;X.     @ ",
"    ..ttttyXXy;&;.X&&&*&XX @  @ ",
"   .......XXXXX.XXXX.XXX..X  @  ",
"   336889991755997699999744 @@  ",
"    3366666247777447777744  @   "
};
