/* XPM */
static char *eef6fa69058c42a5821f417a451ddc0cDkYTifCmlLadvNMY[] = {
/* columns rows colors chars-per-pixel */
"64 64 26 1 ",
"  c None",
". c black",
"X c gray10",
"o c #323232",
"O c #3C3C3C",
"+ c #2E3C43",
"@ c #224454",
"# c #264C5E",
"$ c gray32",
"% c #5B5B5B",
"& c #435761",
"* c #B71C1C",
"= c #D32F2F",
"- c #D47C00",
"; c #FF5722",
": c #F44336",
"> c #FF1744",
", c #FF9800",
"< c #FFC107",
"1 c #FFEB3B",
"2 c #607D8B",
"3 c #009688",
"4 c #03A9F4",
"5 c gray62",
"6 c #84A0AD",
"7 c gray80",
/* pixels */
"                                                                ",
"                                                                ",
"                                                                ",
"                                                                ",
"                                                                ",
"                                                                ",
"                                         2+                     ",
"                                         2+                     ",
"                                   *    22+                     ",
"                                    2   2&+                     ",
"                                     2 2&+                      ",
"                                      22+                       ",
"                                     222&                       ",
"                                   222+ 2&                      ",
"                                 222&+   2&                     ",
"                                          2&                    ",
"                  #########################2&#########          ",
"                ##....................................#         ",
"               #..333333.33333333333333333333333333333.#        ",
"              #.33...33.3333333333333333333333333333333.#       ",
"             #.3..44.33.3333333333333---33333333.......::       ",
"            #.3.4444.33.3333333333333<<---33333.555555.;::::    ",
"           #.3.44444.33.3333333333333=<<<--333.557777.1,;;;:::  ",
"          #.3.444444.33.333333333333==<<<<--33.555555.11,,,;;:: ",
"         #.3.4444444.33.333333333333<<<<<<<-33.557777.1,;;;:::  ",
"        #.3.44444444.33.33333333333<<<<==<<--33.555555.;::::    ",
"      ##.3.444444444.33.33333333333<<<====<<-333.......::       ",
"     #..3.5.44444444.33.3333333333<<<<<==<<<-3333333333.#       ",
"    #..3.55..........33.3333333333<==<<<333333333333333.#       ",
"   #..33.55.33333333333.3333333333333333333333333333333.#       ",
"   #.<.33..333333333333.3...33.33.3.3..3...3..3.3.3..33.#       ",
"  #.<<.33.3333333333333.3.3.3...3.3.33.33..3..3.3.33.33.#       ",
"  #.<<.33.3333333333333.3.3.3.3.33.333.3...33.3...33..3.#      $",
" #....333.3333333333333.3333333333333333333333333333333.#       ",
" #.333333.3333333333333.333333333333333333333333333333..#    %  ",
" #.333333.3333333333333.33333333333333333333333333333.>.#      %",
" #.333333.3333333333333.33333333333333333333333333333.>.#       ",
" #.333333.3322222333333.33333333333333333333332222233.>.#       ",
" #.333333.3222222233333.333333333333333333333222222233..@ .O    ",
" #.222222.222...2222222.22222222222222222222222...22222X@ o     ",
" #.222222.22.555.222222.2222222222222222222222.555.2222.22      ",
"  #.........55655.............................55655....##       ",
"   ########.56265.###########################.56265.###         ",
"          #.55655.#                         #.55655.#           ",
"           #.555.#                           #.555.#            ",
"            #...#                             #...#             ",
"             ###                               ###              ",
"                                                                ",
"                                                                ",
"                                                                ",
"                                                                ",
"                                                                ",
"                                                                ",
"                                                                ",
"                                                                ",
"                                                                ",
"                                                                ",
"                                                                ",
"                                                                ",
"                                                                ",
"                                                                ",
"                                                                ",
"                                                                ",
"                                                                "
};
