/* XPM */
static char *_643728977299[] = {
/* columns rows colors chars-per-pixel */
"64 64 19 1 ",
"  c None",
". c #1B1818",
"X c #231F1F",
"o c #272222",
"O c #322D2D",
"+ c gray21",
"@ c #383030",
"# c #474141",
"$ c gray30",
"% c #4E4E4E",
"& c #656363",
"* c #686565",
"= c #706C6C",
"- c #746E6E",
"; c gray44",
": c #7F7A7A",
"> c #838383",
", c #9B9B9B",
"< c #9E9A9A",
/* pixels */
"        @O           $--                                        ",
"                     -@@-                                       ",
"                     @;;-                                       ",
"                     @;;-         $;                 $;         ",
"                    $@@@@         @O                 @O         ",
"               @-----$@@                                        ",
"             @::::-----                                         ",
"            -:=OOOO;;--@$                                       ",
"           $*OO$;OO%;;--$                                       ",
"           -=OO$;#OO+%o--$              %------                 ",
"           *O#$;;;#OOO *-$            %-----***--$              ",
"          o*OO;;;;#OoOOo*-    %;     %-@@o OOOO@--              ",
"          **O;;;;;#OOOO#*-    @O    $-;o  O====Oo--             ",
"          **O;;;;;#O;;OO*-          $-o%%O==<;:=O--$            ",
"          ;oO;;;;;#O;;OOo-         $-@o$;O=;;;;OOo*-$           ",
"          *oO#;;;;#O##OO.-         >@o$;;O=;;;;#o -@$           ",
"          *oO##;;OOO##O*--        $<@o;;;O=;;;=OX <<-           ",
"           ooO#;;OO #O%;-%        $-o$;;;O=;;;;OX;;<-           ",
"           @@OOO##$%%<@-;         $-o;;;;O==,,#XO$;<-           ",
"            @oOOO$+%<;@-          $;o;;O@.OoO=OO$;;<<           ",
"            @@oo %%<@@@-          $-o OOXXOOoOXX;;;@<           ",
"             @@@@@o@@@@     %;    $oooO$;;#X===OO$;@-           ",
"               @@@o@@       @O     @@O#=;;;&:::=OO @-           ",
"       $;                %;        @@OO ;;;X:#;<=O@@-           ",
"       @O                @O         @OOO;$Oo;:;<=O@@            ",
"                              o@    @@OOOOOOO=:=O#@@            ",
"                             o@@@    @oOOOO;;OOO#@@             ",
"                            @@;;@@   @@@  ;;;;##@@@             ",
"                            o@;;;@    @@@@;;;;@@@@              ",
"                            oo%%$@     @@@@@@@@@@               ",
"             oooo           oo%%oo       @@@@@@                 ",
"           oooooooo          oo@@                         O     ",
"           oooOOooo           oo                                ",
"          oooO###oo@                                            ",
"          oo%;;;;;@@                                            ",
"          -*;;;;;;@-                $;       @ooo               ",
"          --@####@--                @O      oooooo              ",
"           -@@##@@-                        ooo%%o**%            ",
"           --@@@@-@       o*              ooo%%%%o--            ",
"            $----$       oo*-             oo%%%;% --            ",
"             $$$         @---             oo%;OO##--            ",
"                         $-@              o@%%####--            ",
"                         $                oo;;###%--            ",
"       %;                          oo     @oo ;; -@-            ",
"       @O                         @ooo     o@@;;@--%            ",
"                                 oo%%o-     ---@--%             ",
"                                 @$%;@;     %----$              ",
"                                 o%;;@;                         ",
"                                 @-----               %;        ",
"           $$$$$                 $--@-                @O        ",
"           $**--$                  --$                          ",
"          $******$        %;                                    ",
"          ***%%***        @O                                    ",
"         $**$>>$**                                              ",
"        $$**O==O**                       %;                     ",
"         $-oOOOO**       %;              @O                     ",
"          -@ ;; @@       @O                                     ",
"          @@@;;@@@                                              ",
"           @@@@@@                                               ",
"            @@@@                                                ",
"                                                                ",
"                                                                ",
"                                                                ",
"                                                                "
};
