/* XPM */
static char *dc22703751fa46c9d2596a17d1d9b960IXrESUKa4C65BugH[] = {
/* columns rows colors chars-per-pixel */
"64 64 19 1 ",
"  c black",
". c #1B1818",
"X c #231F1F",
"o c #272222",
"O c #322D2D",
"+ c gray21",
"@ c #383030",
"# c #474141",
"$ c gray30",
"% c #4E4E4E",
"& c #656363",
"* c #686565",
"= c #706C6C",
"- c #746E6E",
"; c gray44",
": c #7F7A7A",
"> c #838383",
", c #9B9B9B",
"< c #9E9A9A",
/* pixels */
"                                                                ",
"                                                                ",
"                                                                ",
"                                                                ",
"                                                                ",
"                               O                                ",
"                                                                ",
"                                                                ",
"                                                ;O              ",
"   ;O                                           $@              ",
"   $@                                                           ",
"              $$---<<---                                        ",
"             $-@<<<<@@@@@@           $------$                   ",
"            --*-<;;;;; O@@@@         *-----@-$                  ",
"          $---o  ;%;;$OOO#@@@       o*o ##$---$                 ",
"          --oOOXooO%;OO=-O#@@@     ooo$$### @--                 ",
"          -@O-O#OOoOXO=,,=O#@@     oo%%;O##;;@-                 ",
"         -*O=:;;;;#OX=:;;:O#@@@    oo%%%O##;;--                 ",
"         -*O=;;;;;,=O=:#:=O;;@@    @oo%%;%; @--                 ",
"         -*O=,;;;;,OX=::=O;;;@@     ooo%%%;o@-%                 ",
"         --O==;;;;=XOX&XoO;;;@@      oooo@ooo                   ",
"         -- O==-===OO#;;OOO;;@@       ooooo@          ;O        ",
"         --o OOOOOOXX;;;%OO @@@                       $@        ",
"         $-@ $;;;;;OX;;;;OO @@                                  ",
"          -@o$$;;;;OO$= OOO@@@                                  ",
"          $--oo$;;;;OO#OOOo@@                ;---               ",
"           $--@oo$;; oOOO@@@       ;O       oo@@--$             ",
"            $$-@Oooooo@@@@         %@      oo%;;-@;             ",
"   ;O         $><----o@@                   oo%%;---             ",
"   $@           $$$$$$                      @o%%--              ",
"                           @@@o              o@o@$              ",
"                          @@;%o@                                ",
"           ;O            @@;;%%@o                               ",
"           %@            o@;;%%oo                               ",
"                     ;O   o@@ooo                                ",
"                     %@    @ooo        --                       ",
"                                      **-@         ;O           ",
"                       ;O             oo--         %@  ;O       ",
"         %%------%     %@              o@%%            %@       ",
" ---@  $%--***o.--;                                             ",
"-@;;@@ @;-*o#OOO*----                                           ",
"-@;;@@--;o OOOOOO%@@@@                                          ",
"$-@@@$--;$OOO;;##O<;@@                                          ",
"    $--;=+OoO;;###$<@@@                                         ",
"     --;%OOOOOOOO %%,@@          @@--                           ",
"     --OOO######OO%+$oo        ooo@@--@                         ",
"     -:OO#;;;;;;OO#%$@@        ooo;;@@-%           $****@@      ",
"     -:O;;;;;;;;;;#O @@       ooo#;;#@@-          $*****@@@     ",
"     @:O$$;;;;;;;;OOo@@       ooO#;;##@-$        $-**$OO @@@    ",
"      :-OO%=;;;;##OOo@        ooO#;;##@-$        $-*$>-O;;@@    ",
"      @:OO#O;;;##OOo@@        oooO;;#@@-$        $**$>-O;;@@    ",
"       -*-OOOOOOOo@@@          ooo$;@@-$         $***$OO @@@    ",
"        $-****oooo@            oooo*---          $$****o@@@     ",
"           o**;**                oo--              $***--@      ",
"O                                                    $$$        ",
"@                      ;O                  ;O         $         ",
"                       $@                  $@                   ",
"                                                                ",
"                                                                ",
"                                                                ",
"                                                                ",
"                                                                ",
"                                                                ",
"                                                                "
};
