/* XPM */
static char *_643728957619[] = {
/* columns rows colors chars-per-pixel */
"64 64 19 1 ",
"  c black",
". c #1B1818",
"X c #231F1F",
"o c #272222",
"O c #322D2D",
"+ c gray21",
"@ c #383030",
"# c #474141",
"$ c gray30",
"% c #4E4E4E",
"& c #656363",
"* c #686565",
"= c #706C6C",
"- c #746E6E",
"; c gray44",
": c #7F7A7A",
"> c #838383",
", c #9B9B9B",
"< c #9E9A9A",
/* pixels */
"                                                                ",
"                                                                ",
"                                                                ",
"                                                                ",
"                                                @@@@            ",
"                                               @@@@@@           ",
"                                              @@@;;@@@          ",
"                                     O@       @@ ;; @-          ",
"                     O@              ;%       **OOOOo-%         ",
"                     ;%                       **O==O**%%        ",
"                                              **%>>%**%         ",
"                                    O@        **&%%***          ",
"                                    ;%        %******%          ",
"                          %--                  %=-**%           ",
"        O@                -O--%                 %%%%%           ",
"        ;%               -----@                                 ",
"                         -@;;%o                                 ",
"              %----%     -@;%%@                                 ",
"             %--@---     -o%%oo                                 ",
"            %--@;;@@o     ooo@                         O@       ",
"            -O- ;; oo@     oo                          ;%       ",
"            --%###;;oo                %                         ",
"            --####%%@o              @-%                         ",
"            --##OO;%oo             ---@         %%%             ",
"            -- %;%%%oo             -*oo       %----%            ",
"            --o%%%%ooo              *o       @-@@@O--           ",
"            %**o%%ooo                        -@@##@@-           ",
"              oooooo      O@                --@####@--          ",
"               ooo@       ;%                -@;;;;;;*-          ",
"                                            @@;;;;;%oo          ",
"                                            @oo###Oooo          ",
"                                oo           oooOOooo           ",
"     O                         @@oo          oooooooo           ",
"                 @@@@@@       oo%%oo           oooo             ",
"               @@@@@@@@@@     @%%%oo                            ",
"              @@@@;;;;@@@@    @;;;@o                            ",
"             @@@##;;;;  @@@   @@;;@@                            ",
"             @@#OOO;;OOOOo@    @@@o                             ",
"            @@#O=:-OOOOOOO@@    @o                              ",
"            @@O=,;:=XO%;OOO@         O@                O@       ",
"           -@@O-,;#:X;;; OO@@        ;%                ;%       ",
"           -@ OO=:::&;;;;#O@@     O@       @@o@@@               ",
"           -@;%OO===X#;;%Oooo%    ;%     @@@@o@@@@@             ",
"           <@;;;XXOXOOXXOO o-%          -@@@,%% oo@@            ",
"           <,;;%OO=OXOXOO;;o-%          -@-,%+%OOOo@            ",
"           -,;%OX#,,==O;;;;o-%         --@,%%%##OOO@@           ",
"           -,-;XO;;;;=O;;;%o-%        %--%O# OO;;#Ooo           ",
"           -<, XO;;;;=O;=-o@,%        --*O##OOO;;##Oo*          ",
"           %O- o#;;;;=O;;%o@>         -.OO##O#;;;;#Oo*          ",
"           %-*oOO;;;;=O;%o@-%         -oOO;;O#;;;;;Oo-          ",
"            %--O=:;,==O%%o-%          -*OO;;O#;;;;;O**          ",
"             --oO=--=O  o--%    O@    -*#OOOO#;;;;;O**          ",
"              --@OOOO oOO-%     ;%    -*oOOoO#;;;;OO*o          ",
"              %--***-----%            %-* OOO#;;;%#O*           ",
"                 ------%              %--o%+OO#;%OO--           ",
"                                       %--;-%OO;%OO*%           ",
"                                       %@--;;OOOO-:-            ",
"                                         -----::::@             ",
"                                        @@%-----O               ",
"         O@                 O@         @@@O%                    ",
"         ;%                 ;%         -;;@                     ",
"                                       -;;@                     ",
"                                       -@@-                     ",
"                                        --%           O@        "
};
