/* XPM */
static char *de2e08ad649f4a18dc9685a1a5a20a60qbU5dnQxWwYPldjU[] = {
/* columns rows colors chars-per-pixel */
"64 64 121 2 ",
"   c None",
".  c #7E3F9E",
"X  c #6E3FA7",
"o  c #633FAA",
"O  c #693FA8",
"+  c #753FA5",
"@  c #7C3FA5",
"#  c #733FA8",
"$  c #7F3EA9",
"%  c #6E3DBE",
"&  c #753DBC",
"*  c #7B3DBA",
"=  c #7E409E",
"-  c #607D8B",
";  c #6E40A7",
":  c #6A40A8",
">  c #7440A6",
",  c #7B40A5",
"<  c #613EC2",
"1  c #6A3EC1",
"2  c #9E3F8E",
"3  c #863F9E",
"4  c #8C3F9C",
"5  c #953F95",
"6  c #9C3F93",
"7  c #943F9B",
"8  c #9C3F9A",
"9  c #A33F85",
"0  c #A23F8B",
"q  c #A13F93",
"w  c #A13F9C",
"e  c #833FA4",
"r  c #8B3FA3",
"t  c #923FA2",
"y  c #9B3FA0",
"u  c #993FA2",
"i  c #993FA1",
"p  c #9C3FA0",
"a  c #993FA1",
"s  c #9F408E",
"d  c #84409E",
"f  c #84409E",
"g  c #8E409B",
"h  c #8F409B",
"j  c #88409E",
"k  c #8C409D",
"l  c #8D409D",
"z  c #8C409E",
"x  c #964096",
"c  c #9E4091",
"v  c #9A4095",
"b  c #994096",
"n  c #9B4096",
"m  c #9C4094",
"M  c #9D4094",
"N  c #9F4094",
"B  c #9E4095",
"V  c #9D4095",
"C  c #91409B",
"Z  c #93409A",
"A  c #974099",
"S  c #94409A",
"D  c #97409A",
"F  c #94409F",
"G  c #94409B",
"H  c #994099",
"J  c #98409A",
"K  c #99409A",
"L  c #9B409A",
"P  c #9D4099",
"I  c #9F4098",
"U  c #9E4099",
"Y  c #98409F",
"T  c #9F409D",
"R  c #9F409E",
"E  c #9C409A",
"W  c #A34085",
"Q  c #A14089",
"!  c #A1408A",
"~  c #A0408B",
"^  c #A2408A",
"/  c #A1408D",
"(  c #A2408C",
")  c #A1408E",
"_  c #A3408E",
"`  c #A2408C",
"'  c #A04090",
"]  c #A14090",
"[  c #A14092",
"{  c #A24092",
"}  c #A34092",
"|  c #A14097",
" . c #A24094",
".. c #A2409D",
"X. c #A3409B",
"o. c #8340A3",
"O. c #8740A3",
"+. c #8040A5",
"@. c #8140A5",
"#. c #8240A4",
"$. c #8140A6",
"%. c #8640A4",
"&. c #8740A4",
"*. c #8340A5",
"=. c #8940A2",
"-. c #8840A3",
";. c #8A40A2",
":. c #8F40A1",
">. c #8C40A2",
",. c #8E40A2",
"<. c #8840A4",
"1. c #8940A5",
"2. c #9740A2",
"3. c #9240A4",
"4. c #9340A3",
"5. c #9940A0",
"6. c #9940A1",
"7. c #9B40A0",
"8. c #9A40A1",
"9. c gray62",
"0. c gray62",
/* pixels */
"                                                                                                                                ",
"                                                                                                                                ",
"                                                                                                                                ",
"                                                                                                                                ",
"                                                                                                                                ",
"                                                                                                                                ",
"                                                      - - - - - - - - - - -                                                     ",
"                                                - - - - - - - - - - - - - - - - -                                               ",
"                                          - - - - - - - 0.0.0.0.9.9.9.9.9.- - - - - - -                                         ",
"                                      - - - - - - 0.0.0.0.0.0.0.9.9.9.9.9.9.9.9.- - - - - -                                     ",
"                                    - - - - 9.9.0.0.0.0.- - - - - - - - - 9.0.0.9.9.9.- - - -                                   ",
"                                  - - - 9.9.9.9.0.0.- - e + + @ * & & & * - - 0.9.9.9.9.9.- - -                                 ",
"                              - - - - 0.0.0.0.- - - e e e @ @ @ $ @ @ @ @ + > - - - 9.9.9.9.- - - -                             ",
"                            - - - - 0.0.0.- - e e e e e e @ @ e @ @ @ @ @ @ , & & & - - 9.9.0.- - - -                           ",
"                          - - - 0.0.0.0.- r e e r r e e r r r r 4 r 4 r r e e $ @ @ % $ - 0.0.0.9.- - -                         ",
"                        - - - 9.0.0.- - r e r r e r r 4 l g g ;.3.t t t 7 r r %.e +.X 1 1 - - 0.9.9.- - -                       ",
"                        - - 0.0.0.- $ %.r t t t t t t 7 8 8 8 u u 6.6.u u r r %.%.+., O O o % - 9.9.9.- -                       ",
"                      - - - 0.0.- e $.%.r t r 3.2.6.7.| | q q R ..p 8 u 8 8 7 7 r ;.e @ @ + > % - 9.9.- - -                     ",
"                    - - - 0.0.- , $ f l 7 i t t 6.P | } 0 q q w ....w w 8 P 6 v K 7 r ;.f @ @ & & - 9.9.- - -                   ",
"                  - - - 0.0.0.- e e j 4 7 5 u t p q w q q q 0 q q w ..T w 8 c 6 0 2 v 5 j r r * * - 9.9.9.- - -                 ",
"                  - - 0.0.0.- e r r t 7 t 5 i u ..q q 0 0 q } q q q q } q ] c s ! 2 2 5 3 r r @ $ & - 9.9.9.- -                 ",
"                - - - 0.0.- r r r t 7 5 D 8 u p w q q _ 0 q 0 9 0 0 9 } w P c s ! 2 2 6 7 4 e @ @ X O - 9.9.- - -               ",
"                - - 0.0.0.- r r 4 7 7 K 5 8 8 8 w q q 9 0 0 0 9 9 9 9 q | | M 6 0 0 2 6 4 g %.$ @ > O - 9.9.9.- -               ",
"                - - 0.0.- e r r 7 D 8 8 q ] _ 0 q q _ 0 9 0 0 9 0 9 9 0 | P | q 6 5 v D Z 7 ;.e e , X ; - 9.9.- -               ",
"              - - - 9.9.- e r t 7 L 8 8 6 _ _ 0 0 2 9 9 9 9 9 9 9 9 9 0 0 0 0 0 q 6 M K D D :.e e > X ; - 0.0.- - -             ",
"              - - 9.9.9.- r t t 5 6 6 6 6 _ _ 9 ! 0 9 9 9 9 9 9 9 0 0 0 0 0 0 0 q 6 M 6.D D D 3 3 , + > - 0.0.0.- -             ",
"              - - 9.9.- e r t u 5 8 q ] ] ! _ 0 0 0 9 9 9 9 9 0 0 0 0 0 0 0 ^ 0 0 0 q u i 5 5 7 4 f . > ; - 0.0.- -             ",
"            - - - 9.9.- r r t 5 q q 0 _ _ 0 q 0 0 0 0 9 9 9 9 0 0 0 w 0 9 9 0 9 0 0 2 8 i 7 8 4 5 f = > > - 0.0.- - -           ",
"            - - 9.9.- e r e t 5 6 q 0 0 0 0 0 q 0 0 9 9 9 0 0 0 q 0 0 0 9 9 0 0 0 q _ M 6 2 2 5 4 f = > > > - 0.9.- -           ",
"            - - 9.9.- e r r t 5 8 8 6 q 0 0 0 0 0 ! ! 0 0 0 0 9 0 9 0 0 0 ^ ^ 0 0 | c M 2 2 5 4 3 f = > > > - 0.9.- -           ",
"            - - 9.9.- e e e r 7 5 8 8 8 0 0 0 0 0 0 0 0 0 0 0 9 9 W 9 9 9 9 0 _ q q | c 2 5 5 3 e @ @ + + + - 9.9.- -           ",
"            - - 9.9.- e e e 3 7 8 8 u 8 6 ] _ 0 q 0 0 0 0 0 0 9 9 9 9 W W 9 9 ^ _ q P c 2 2 2 5 @ @ > @ + + - 9.9.- -           ",
"            - - 0.0.- e e e 3 7 8 5 q 6 0 _ } q } q 0 0 9 9 9 9 9 9 9 W W 9 W 9 0 6 8 8 M K x 5 @ , + @ + + - 0.0.- -           ",
"            - - 0.0.- e e e 4 7 7 5 q 0 ^ 0 }  . .| | 0 9 9 9 W 9 9 W 9 9 9 9 0 _ 6 p 6.v x g 5 e $ , + + + - 0.0.- -           ",
"            - - 0.0.- @ @ e 4 g 7 7 2 0 0 _ | X. .} ! 9 9 9 9 9 0 9 W W 9 9 9 9 ] q u L v Z Z 5 r @ , , = > - 0.0.- -           ",
"            - - 0.0.- @ @ @ @ @ e 4 6 0 0 0 q |  ._ 9 9 9 9 9 9 0 9 0 9 9 9 9 0 ] 8 8 K v Z g 4 e @ @ , , , - 0.0.- -           ",
"            - - 0.0.- @ + , @ e $ 4 5 0 0 0 0 0 X.0 0 0 9 0 9 0 0 0 9 9 9 9 W } 8 6.T K v x Z 3 r , @ , , , - 0.9.- -           ",
"            - - - 0.0.- @ @ @ e , 1.5 w q 0 0 q  ._ 0 ^ ! 0 0 0 9 0 0 9 9 9 0  .P 8 6.x 6 5 5 4 r , , , , - 0.0.- - -           ",
"              - - 0.0.- @ @ @ e $ e 8 q 0 0 0 _ ] _ 0 0 _ _ 0 0 9 0 0 0 0 0 0 | P u 2.x 6 5 5 4 e +., , , - 0.0.- -             ",
"              - - 0.0.0.- + + $., e 5 8 q 0 q 0 q 0 0 q 6 6 q 0 0 0 0 0 0 ] c P 6.i i 7 D j j %.$., , , - 0.0.0.- -             ",
"              - - - 9.9.- > + + , @ r 4 7 Z 7 5 5 M 6 5 P M q q 0 0 q 0 0 0 6 T u 2.2.D D j j e r , , , - 9.9.- - -             ",
"                - - 9.9.- 1 1 > > @ r 3 7 7 5 5 7 7 K L D 2.| P 8 w w 8 q | L 8 i t t 3.3.%.%.r e , , , - 9.9.- -               ",
"                - - 9.9.0.- 1 ; > + r r r r t t t t 8 6.2.8 u P P w q 6 8 q 3.t t t r ;.1.$., $ @ , , - 9.9.9.- -               ",
"                - - - 9.0.- 1 ; ; + r r r t t i t t K 8 5 6 8 c P P M | ....3.t t t r 1.;.$.$.e e +., - 9.9.- - -               ",
"                  - - 9.0.0.- 1 ; + e $.r ;.r r r r 5 5 6 5 8 6 5 8 8 u u u t t t t r 1.r e e , , , - 9.9.9.- -                 ",
"                  - - - 0.0.0.- : + @ @ e +.r :.1.r 5 5 6 5 8 5 7 8 8 t i t t r r 1.%.%.$., $., , - 9.9.9.- - -                 ",
"                    - - - 0.0.- 1 % @ @ e $.r %.1.r 4 7 5 D D 2.t t t 3.r r 3.1.1.3.$.$.%., $., , - 9.9.- - -                   ",
"                      - - - 0.0.- & , $ e %.e %.%.r r r r 3.1.3.r r r 3.r t 1.$.$.$.$.%.$., , , - 9.9.- - -                     ",
"                        - - 9.9.0.- + > # + $ , @ @ e +.r r r t r r r r 1.1.$., , , , $ @ @ @ - 9.9.9.- -                       ",
"                        - - - 9.0.0.- - # + + + + + + + @ r e e 1.1.1.$.1.1.$., , , , + + - - 9.9.9.- - -                       ",
"                          - - - 0.0.0.0.- # > ; ; > > > @ r r %.1.1.1.1.1.$.$., , , , + - 0.9.9.9.- - -                         ",
"                            - - - - 0.0.0.- - O O O O O + @ @ , $ $.%.$.$.$., , , , - - 0.0.9.- - - -                           ",
"                              - - - - 0.0.0.0.- - - : : ; > > + , + + $ + $ , - - - 0.0.9.9.- - - -                             ",
"                                  - - - 0.0.0.0.0.0.- - ; > > + > , + , > - - 0.0.0.0.0.9.- - -                                 ",
"                                    - - - - 0.0.0.0.0.0.- - - - - - - - - 0.0.0.0.0.0.- - - -                                   ",
"                                      - - - - - - 0.0.0.0.0.0.0.0.0.0.0.0.0.0.0.- - - - - -                                     ",
"                                          - - - - - - - 0.0.0.0.0.0.0.0.0.- - - - - - -                                         ",
"                                                - - - - - - - - - - - - - - - - -                                               ",
"                                                      - - - - - - - - - - -                                                     ",
"                                                                                                                                ",
"                                                                                                                                ",
"                                                                                                                                ",
"                                                                                                                                ",
"                                                                                                                                "
};
