/* XPM */
static char *e5d6c6a8029f40fab88c4bda85460800TLA01Cw1KCgBv51A[] = {
/* columns rows colors chars-per-pixel */
"64 64 29 1 ",
"  c None",
". c black",
"X c #1E1E1E",
"o c gray21",
"O c #72301B",
"+ c #754C1B",
"@ c #7B722F",
"# c gray30",
"$ c #4E4E4E",
"% c gray43",
"& c gray44",
"* c #D50000",
"= c #A34526",
"- c #A76D27",
"; c #EA6337",
": c #EF9C38",
"> c #B0A343",
", c #FCEA60",
"< c #57AFB1",
"1 c #3D87CB",
"2 c #2196F3",
"3 c #64B6F7",
"4 c #7DFBFD",
"5 c #9B9B9B",
"6 c gray62",
"7 c #B2B2B2",
"8 c #A4FCFE",
"9 c #BFFDFE",
"0 c white",
/* pixels */
"                                                                ",
"                                                                ",
"                       >,>            >,>                       ",
"                       ,,>            >,,                       ",
"                     --::-     >>     -::--                     ",
"                     +-::-     @@     -::-+                     ",
"                     -:::-     >>     -:::-                     ",
"            >,,      O;;;=  @@>,,>@@  =;;;O     ,,,>            ",
"            >,,      =;;;=  @>,,,,>@  =;;;=     ,,,>            ",
"            -::   ..........+::::::+..........  :::-            ",
"            ::-   ..........-::::::-..........  --::            ",
"            ::-   ..........-::::::-..........  --::            ",
"            ;;=   ...%%%%%..=;;;;;;=..%%%%%...  ==;;            ",
"            ;;=   ...%6666..=;;;;;;=..6666%...  ==;;            ",
"          ...........%648966........669846%...........          ",
"          ...........%648966........669846%...........          ",
"          .$$$$$$.55.%648966.000000.669846%.55.$$$$$$.          ",
"...........$&&&$$.&5.%648999%000000%999846%.5&.$&&&&$...........",
".o$$$$$$$$.$&6&$$.&5.%648889%%2332%%988846%.5&.$&&6&$.$$$$$$$$o.",
".$$&&&&&&&.&&6&&&.&5.%6<4489%%2332%%9844<6%.5&.&&&6&&.&&&&&&&$$.",
".$&6666666.&&6&&&.&5.%6<4489%%2332%%9844<6%.5&.&&&6&&.6666666&$.",
".$&6222226.&&6&&&.&5.%6<<489%%2332%%984<<6%.5&.&&&6&&.6222226&$.",
".$&6222226.&&6&&&.&5.%666689%%2332%%986666%.5&.&&&6&&.6222226&$.",
".$&6222226.&&6&&&.&5.%%%%689%%2332%%986%%%%.5&.&&&6&&.6222226&$.",
".$&6222226.&&6&&&.&5.99999%%%%2332%%%%99999.5&.&&&6&&.6222226&$.",
".$&6666666.&&6&&&.&5.88889%**%2332%**%98888.5&.&&&6&&.6666666&$.",
".$&&&&&&&&.&&6&&&.&5.44489%**%2332%**%98444.5&.&&&6&&.&&&&&&&&$.",
".$&&&&&&&&.&&6&&&.&&.<4489%**%2332%**%9844<.&&.&&&6&&.&&&&&&&&$.",
"...........&&6&&&.&&.<<499%%%%2332%%%%994<<.&&.&&&6&&...........",
"  ...     .&&6&&&.&&.6666666%%2332%%6666666.&&.&&&6&&.     ...  ",
"  ...     .&&6&&&.&&.6666666%%2332%%6666666.&&.&&&6&&.     ...  ",
"  ...     .&&6&&&.&&.%%%%%%%%%2332%%%%%%%%%.&&.&&&6&&.     ...  ",
"          .&&6&&&.&&.%%$%%..%%2332%%..%%$%%.&&.&&&6&&.          ",
"          .&&6&&&.&&.%%X77.07%2332%70.77X%%.&&.&&&6&&.          ",
"          .&&6&&&.&&.66X70.07%2332%70.07X66.&&.&&&6&&.          ",
"          .&&6&&&.&&.66.70.07%2332%70.07.66.&&.&&&6&&.          ",
"          .&&6&&&....66....07%2332%70....66....&&&6&&.          ",
"          .&&6&&&.<.<..77..07%2332%70..77..<.<.&&&6&&.          ",
"          .&&6&&&.4.4..70..07%2332%70..07..4.4.&&&6&&.          ",
"          .&&6&&&......70..0712332170..07......&&&6&&.          ",
"          .&&6&&&.<44..70..0712332170..07..44<.&&&6&&.          ",
"          .&&6&&&......70..0712332170..07......&&&6&&.          ",
"          .&&6&&&.4.<<.70..0762332670..07.<<.4.&&&6&&.          ",
"          .&&6&&&...<4.70...%000000%...07.4<...&&&6&&.          ",
"          .&&&&&&.4....70.77.000000.77.07....4.&&&&&&.          ",
"          .oooooo.4.44.70.70........07.07.44.4.oooooo.          ",
"          ..%%%........70.70........07.07.......%%%%..          ",
"           $$.$$$     .70.70.77..77.07.07.     $$$.$$           ",
"           &$.$&&     .70.70.70..07.07.07.     &$$.$&           ",
"           &$.$&&     .70.70.70..07.07.07.     &$$.$&           ",
"           &$.$&&     .70.70.70..07.07.07.     &$$.$&           ",
"            ...       .00.70.70..07.07.00.      ....            ",
"                      .00.00.70..07.00.00.                      ",
"                       ...00.70..07.00...                       ",
"                         .00.00..00.00.                         ",
"                         .00.00..00.00.                         ",
"                          ...00..00...                          ",
"                          00.00..00.00                          ",
"                            .00..00.                            ",
"                            .00..00.                            ",
"                             ......                             ",
"                               ..                               ",
"                                                                ",
"                                                                "
};
