/* XPM */
static char *_716b3dbdf694f328cdaaf832eb0bea3QU5YNWncIAFeMe71[] = {
/* columns rows colors chars-per-pixel */
"64 64 51 1 ",
"  c None",
". c #4D7B27",
"X c #4D7F2B",
"o c #527723",
"O c #527823",
"+ c #547B24",
"@ c #567D24",
"# c #577F25",
"$ c #4D822D",
"% c #598327",
"& c #5C8728",
"* c #4D8630",
"= c #4D8C34",
"- c #4D9139",
"; c #4C993F",
": c #608C2A",
"> c #68982B",
", c #6B9D2A",
"< c #6DA12B",
"1 c #75AF2C",
"2 c #79B62D",
"3 c #7AB62D",
"4 c #7AB72D",
"5 c #7BB52E",
"6 c #7BB52F",
"7 c #7AB62E",
"8 c #7AB72E",
"9 c #7BB72E",
"0 c #7BB72F",
"q c #75A63B",
"w c #6FB435",
"e c #6EB535",
"r c #63B33E",
"t c #6AB438",
"y c #6AB439",
"u c #71B533",
"i c #72B533",
"p c #75B530",
"a c #74B531",
"s c #7CB830",
"d c #7DB932",
"f c #7EB934",
"g c #7FBB36",
"h c #4CA347",
"j c #5AB145",
"k c #4CAF50",
"l c #7FB342",
"z c #80BB37",
"x c #82BC3B",
"c c #86BF41",
"v c #8BC34A",
/* pixels */
"                                                                ",
"                                                                ",
"                                                                ",
"                                                                ",
"                                                                ",
"                                                                ",
"                                                                ",
"                    jkkk      kkkkkkkk                          ",
"                kkkkxz55kk  kkkvvvvvxjkkk                       ",
"              kkkvvvccd566kkkvvvvvxvzv66kk                      ",
"             kkvvvvvxcx5576kkvvvvvxxxc666kk                     ",
"             kvvvvvd5xfd5667kvvvvvxxzc6666k   kkkkkk            ",
"             kvvvvcxdxfx5577kvvkkkuxx57666k kkvvvvzxjy          ",
"          kkkkkkkvvvvdffv566kkkkvzuyy57766kkvvvvvfzxvjej        ",
"         kkvvvvvkkvcffxzf666k5vcdxxxyk576kvvvvvvvcfzdzz6kk      ",
"        kvvvvvvvvkvcddxz7666k5vvxxxx55k5kvvvvvvvvdccffc66kk     ",
"       kvvvvvvvvvvvvcdxx445kk5vxxvf964k6kvvvvvvvvczd9zd555k     ",
"       kvvvvvvvvvvvvxdvx5kkk5vvv9zzd466kvvvvvvvvvvcfd8z575kk    ",
"       kvvvvvvvvvvvcfzdx5j55vvx9dxdd4rkkvvvvvvvvvvvxv888566k    ",
"       kvvvvvvvvvvvxfzvdgxvvgg8dfd855pvvvvvvvvvvvvxxddx5766k    ",
"       kkvvvvvvvvvvvvxccgcccxcfdvzx56kvvvvvvvvvvvvcv6f85666k    ",
"        kkkkkkvvvvvfvxcxxvczvxfdzx556kvvvvvvvvvvvvzdfdd4666k    ",
"       kkvvvvkkvvzvdcccvgvxvvxyr55556kvvvvvvvvvvvcxdzv65666k    ",
"      kkvvvvvvvvzxdvxgxvvxccvjj:y5556kvvvvvvxvvxcxddd9d5666k    ",
"      kvvvvvvvffzzvczjr6cccvvk>:&k666kkvvvvvxzdzx7ggx95666k     ",
"      kkvvcxxvfxdd95y>r6czdxvk:::k6666kvvxvzcxxvxgvgx67666k     ",
"       kvvxcfd8g8855j:j6d6zddk:::kd666vvvcvzcdxzff55556666k     ",
"        kczxdxgfx858j::j6dzdpy:::k57vvvvvvxv9v666775556666k     ",
"         kvcxxf85476k::y8zd9p1:::k6vvvvvvvvxvx66666666666kk     ",
"          k555558566k:>k6d9zy:::k6vvvvvvvvxxzvvk66666666kk      ",
"           kk5555577k::kj4ct<:::k6vvvvvvvvvvxvv6kk66666kkk      ",
"            jk555577k:::k6kj:::kk6vvvvvvvvvvvvv666kkkkj666k     ",
"              kkk666k:::kkk::::k6vvvvvvvvvvvvvv55576558555k     ",
"                 kkkk::::::::::k6vvvvvvvvvvvvvvvv566555855k     ",
"                   k:::::::::::k6vvvvvvvvvvvvvvvvvvddfdg57kk    ",
"                  kk:::::::::::kkkvvvvvvvvvvvvvvczzd8dx5557k    ",
"                  k:::::::::::::::kkkkvvvvvvvvxzczxfx8d5666k    ",
"                 k::::::::&:&:::&&#&:%khkvvvvvzxd5fd8dx4666k    ",
"                 k:::::::&&:#+#&#@%%&#%&:kvvv458vd5fdzv5666k    ",
"                k::::::&&#o#%&&#%#+%+%##&kcfxzx9dcfgxvx5667k    ",
"              kk:::::&&&%#&:%#&&$$$;=h=hh7zxdfx8zffvvv6666kk    ",
"              k::::&:&&:#++*$.k*   ;757667z65z5gzxcvv66666k     ",
"             k::::%%&o###=-        h5qll5dzzdffar76666666kk     ",
"            k::::&###&&$X          ;5,l5vv5d6fx6kkk66kkkk       ",
"          kk::::&#&%#%-            kk7vzfgf7xxc7kkkkk           ",
"         k::::::&##%=;              k6665vffvcv7k               ",
"        k:::::%&&+Oh-                kk6445vvv7kk               ",
"       k:::::::%%O==                  kkkk5555kk                ",
"      k::::::&&%&&-                      kkkkk                  ",
"      k::::::%&:&=                                              ",
"      k::::&:#+%-*                                              ",
"       k::&##&:&h                                               ",
"       k::%%@@%-                                                ",
"        k&:#@@h-                                                ",
"         ;h%#+h                                                 ",
"           h;;                                                  ",
"                                                                ",
"                                                                ",
"                                                                ",
"                                                                ",
"                                                                ",
"                                                                ",
"                                                                ",
"                                                                "
};
