/* XPM */
static char *e28a659d93ac4141ffa6a16a101192f9PhLuGUGn3cps7ZJI[] = {
/* columns rows colors chars-per-pixel */
"350 50 2 1 ",
"  c black",
". c white",
/* pixels */
"..............................................................................................................................................................................................................................................................................................................................................................",
".                                                                                                                                                                                                                                                                                                                                                            .",
". .......................................................................................................................................................................................................................................................................................................................................................... .",
". .                                                                                                                                                                                                                                                                                                                                                        . .",
". .                                                                                                                                                                                                                                                                                                                                                        . .",
". .                                                                                                                                                                                                                                                                                                                                                        . .",
". .                                                                                                                                                                                                                                                                                                                                                        . .",
". .                                                                                                                                                                                                                                                                                                                                                        . .",
". .                                                                                                                                                                                                                                                                                                                                                        . .",
". .                                                                                                                                                                                                                                                                                                                                                        . .",
". .                                                                                                                                                                                                                                                                                                                                                        . .",
". .                                                                                                                                                                                                                                                                                                                                                        . .",
". .                                                                                                                                                                                                                                                                                                                                                        . .",
". .                    ..................................                                                                                                                                                                                                                                                                                                  . .",
". .                   .                            .     ..                                                                                                                                                                                                                                                                                                . .",
". .                  .                              .      .                                                                                                                                                                                                                                                                                               . .",
". .                  .                 ...          .  ...  .                                                                                                                                                                                                                                                                                              . .",
". .              .. .........        ... .          .  .  .  .                                                                                                                                                                                                                                                                                             . .",
". .           ...  .         .      ..  ..          .  .   .  .                                                                                                                                                                                                                                                                                            . .",
". .         ..      .         .    ..   ...         .  .    .  .                                                                                                                                                                                                                                                                                           . .",
". .        .        .         .    .      .         .  .     .  .                                                                                                                                                                                                                                                                                          . .",
". .         ..      .         .   ..       .        .  .      .  .                                                                                                                                                                                                                                                                                         . .",
". .           ...  .         .    .   ..   .        .  .       .  .                                                                                                                                                                                                                                                                                        . .",
". .              .. .........     ...... .. .       .  .        .  ..                                                                                                                                                                                                                                                                                      . .",
". .                  .                  .....       .   ........  .  ..                                                                                                                                                                                                                                                                                    . .",
". .                  ..                             .             .  . .                                                                                                                                                                                                                                                                                   . .",
". .                  . .                            .  ..         .  .  .                                                                                                                                                                                                                                                                                  . .",
". .                  . .                            .             .   . .                                                                                                                                                                                                                                                                                  . .",
". .                  . .                            .             .    ..                                                                                                                                                                                                                                                                                  . .",
". .                  ..     ...                     .       ...   .     .                                                                                                                                                                                                                                                                                  . .",
". .                  ..... .   . ......................... .   . ........                                                                                                                                                                                                                                                                                  . .",
". .                  .    .     .                   .     .     . .     .                                                                                                                                                                                                                                                                                  . .",
". .                   .....  .  ...........................  .  ........                                                                                                                                                                                                                                                                                   . .",
". .                       .     .                         .     .                                                                                                                                                                                                                                                                                          . .",
". .                        .   .                           .   .                                                                                                                                                                                                                                                                                           . .",
". .                         ...                             ...                                                                                                                                                                                                                                                                                            . .",
". .                                                                                                                                                                                                                                                                                                                                                        . .",
". .                                                                                                                                                                                                                                                                                                                                                        . .",
". .                                                                                                                                                                                                                                                                                                                                                        . .",
". .                                                                                                                                                                                                                                                                                                                                                        . .",
". .                                                                                                                                                                                                                                                                                                                                                        . .",
". .                                                                                                                                                                                                                                                                                                                                                        . .",
". .                                                                                                                                                                                                                                                                                                                                                        . .",
". .                                                                                                                                                                                                                                                                                                                                                        . .",
". .                                                                                                                                                                                                                                                                                                                                                        . .",
". .                                                                                                                                                                                                                                                                                                                                                        . .",
". .                                                                                                                                                                                                                                                                                                                                                        . .",
". .......................................................................................................................................................................................................................................................................................................................................................... .",
".                                                                                                                                                                                                                                                                                                                                                            .",
".............................................................................................................................................................................................................................................................................................................................................................."
};
