/* XPM */
static char *_9505edfbff94f67f1c3f116dac0d3e3QkTVXaxGBbmIefvD[] = {
/* columns rows colors chars-per-pixel */
"64 64 26 1 ",
"  c None",
". c black",
"X c gray10",
"o c #323232",
"O c #3C3C3C",
"+ c #2E3C43",
"@ c #224454",
"# c #264C5E",
"$ c gray32",
"% c #5B5B5B",
"& c #435761",
"* c #B71C1C",
"= c #D32F2F",
"- c #D47C00",
"; c #FF5722",
": c #F44336",
"> c #FF1744",
", c #FF9800",
"< c #FFC107",
"1 c #FFEB3B",
"2 c #607D8B",
"3 c #009688",
"4 c #03A9F4",
"5 c gray62",
"6 c #84A0AD",
"7 c gray80",
/* pixels */
"                                                                ",
"                                                                ",
"                                                                ",
"                                                                ",
"                                                                ",
"                                                                ",
"                     +2                                         ",
"                     +2                                         ",
"                     +22    *                                   ",
"                     +&2   2                                    ",
"                      +&2 2                                     ",
"                       +22                                      ",
"                       &222                                     ",
"                      &2 +222                                   ",
"                     &2   +&222                                 ",
"                    &2                                          ",
"          #########&2#########################                  ",
"         #....................................##                ",
"        #.33333333333333333333333333333.333333..#               ",
"       #.3333333333333333333333333333333.33...33.#              ",
"       ::.......33333333---3333333333333.33.44..3.#             ",
"    ::::;.555555.33333---<<3333333333333.33.4444.3.#            ",
"  :::;;;,1.777755.333--<<<=3333333333333.33.44444.3.#           ",
" ::;;,,,11.555555.33--<<<<==333333333333.33.444444.3.#          ",
"  :::;;;,1.777755.33-<<<<<<<333333333333.33.4444444.3.#         ",
"    ::::;.555555.33--<<==<<<<33333333333.33.44444444.3.#        ",
"       ::.......333-<<====<<<33333333333.33.444444444.3.##      ",
"       #.3333333333-<<<==<<<<<3333333333.33.44444444.5.3..#     ",
"       #.333333333333333<<<==<3333333333.33..........55.3..#    ",
"       #.3333333333333333333333333333333.33333333333.55.33..#   ",
"       #.33..3.3.3..3...3..3.3.33.33...3.333333333333..33.<.#   ",
"       #.33.33.3.3..3..33.33.3.3...3.3.3.3333333333333.33.<<.#  ",
"$      #.3..33...3.33...3.333.33.3.3.3.3.3333333333333.33.<<.#  ",
"       #.3333333333333333333333333333333.3333333333333.333....# ",
"  %    #..333333333333333333333333333333.3333333333333.333333.# ",
"%      #.>.33333333333333333333333333333.3333333333333.333333.# ",
"       #.>.33333333333333333333333333333.3333333333333.333333.# ",
"       #.>.33222223333333333333333333333.3333332222233.333333.# ",
"    O. @..332222222333333333333333333333.3333322222223.333333.# ",
"     o @X22222...22222222222222222222222.2222222...222.222222.# ",
"      22.2222.555.2222222222222222222222.222222.555.22.222222.# ",
"       ##....55655.............................55655.........#  ",
"         ###.56265.###########################.56265.########   ",
"           #.55655.#                         #.55655.#          ",
"            #.555.#                           #.555.#           ",
"             #...#                             #...#            ",
"              ###                               ###             ",
"                                                                ",
"                                                                ",
"                                                                ",
"                                                                ",
"                                                                ",
"                                                                ",
"                                                                ",
"                                                                ",
"                                                                ",
"                                                                ",
"                                                                ",
"                                                                ",
"                                                                ",
"                                                                ",
"                                                                ",
"                                                                ",
"                                                                "
};
