/* XPM */
static char *f3f7654365a84f78bcddfddadd586298PPstB2ymtvYijNFk[] = {
/* columns rows colors chars-per-pixel */
"64 64 4 1 ",
"  c None",
". c #445359",
"X c #57717D",
"o c gray62",
/* pixels */
"                                                                ",
"                                                                ",
"                                                                ",
"                                                                ",
"                                                                ",
"                                                                ",
"                                                                ",
"                                                                ",
"                                                                ",
"                                                                ",
"              .             .                                   ",
"              .....     .....                                   ",
"              .XXXX.....XXXX.                                   ",
"              .XXXXoXXXoXXXX.                                   ",
"              .XXXXoooooXXXX.                                   ",
"              .oooo.....oooo.                                   ",
"      ...     .....     .....                                   ",
"     .XXX.    .  .       .  .  ...........                ..    ",
"     .XXX.       .       .    .XXXXXXXXXXX.              .XX.   ",
"     .XXX.      ...     ...  .XXXXXXXXXXXXX.             .XX.   ",
"     .XXXX...................XXXXXXXXXXXXXXX.............XXX.   ",
"     .XXXXXXXXXXXooXXooXXXXX.XXXXXXXXXXXXXXX.XXXXXXXXXXXXXXX.   ",
"     .XXXXXXXXXXXooXXooXXXXX.XXXXXXXXXXXXXXX.XoXoXXoXXooXXXX.   ",
"     .XXXXXXXXXooXXooXXXXXXX.XXXXXXXXXXXXXXX.XoXoXoXoXXoXXXX.   ",
"     .XXXXXXXXXooXXooXXXXXXX.XXXXXXXXXXXXXXX.XXoXXXoXXoXXXXX.   ",
"     .XXXXXXXooXXooXXXXXXXXX.XXXXXXXXXXXXXXX.XXXXXXXXXXXXXXX.   ",
"     .XXXXXXXooXXooXXXXXXXXX.XXXXXXXXXXXXXXX.XXXXXXXXXXXXXXX.   ",
"     .XXXXXooXXooXXXXXXXXXXX.XXXXXXXXXXXXXXX.XXXXXXXXXXXXXXX.   ",
"     .XXXXXooXXooXXXXXXXXXXX.XXoooXXXXXoooXX.XXXXXXXXXXXXXXX.   ",
"     .XXXooXXooXXXXXXXXXXXXX.ooooooooooooooo.XXXXXXXXXXXXXXX.   ",
"     .XXXooXXooXXXXXXXXXXXXX.ooooooooooooooo.XXXXXXXXXXXXXXX.   ",
"     .XooXXooXXXXXXXXXXXXXXX.ooooooooooooooo.XXXXXXXXXXXXXXX.   ",
"     .XooX...................ooooooooooooooo.............XXX.   ",
"     .oXX.   .ooo.           .ooooooooooooo.   .ooo.     .XX.   ",
"     .oXX.   .ooo.            .ooooooooooo.    .oXo.     .XX.   ",
"     .XXX.    .oo.             ...........     .oo.       ..    ",
"      ...      .o.                             .o.              ",
"               .o.                             .o.              ",
"               .o.                             .o.              ",
"               .o.                             .o.              ",
"               .o.                             .o.              ",
"               .o.                             .o.              ",
"               .o.                             .o.              ",
"                .                               .               ",
"                                                                ",
"                                                                ",
"                                                                ",
"                                                                ",
"                                                                ",
"                                                                ",
"                                                                ",
"                                                                ",
"                                                                ",
"                                                                ",
"                                                                ",
"                                                                ",
"                                                                ",
"                                                                ",
"                                                                ",
"                                                                ",
"                                                                ",
"                                                                ",
"                                                                ",
"                                                                "
};
