/* XPM */
static char *_643728966069[] = {
/* columns rows colors chars-per-pixel */
"64 64 19 1 ",
"  c None",
". c #1B1818",
"X c #231F1F",
"o c #272222",
"O c #322D2D",
"+ c gray21",
"@ c #383030",
"# c #474141",
"$ c gray30",
"% c #4E4E4E",
"& c #656363",
"* c #686565",
"= c #706C6C",
"- c #746E6E",
"; c gray44",
": c #7F7A7A",
"> c #838383",
", c #9B9B9B",
"< c #9E9A9A",
/* pixels */
"                                                                ",
"                                                                ",
"                                                                ",
"                                                                ",
"                                                                ",
"                                                                ",
"                                                                ",
"                   @%                  @%                       ",
"         $         O;                  O;                      @",
"        $$$                                                    O",
"      @--***$              -;oo                **-**o           ",
"     @@@o****$$          ---*oooo            @oooo****;$        ",
"    @@@ OO$***$         %-@@;%ooo          @@@oOOOOOOO=*-       ",
"    @@;;O=>$**$        %-@@#;;Oooo        @@oOO##;;;O#OO:@      ",
"    @@;;O=>$*-$        %-@##;;#Ooo        @oOO##;;;;;%OO-:      ",
"    @@@ OO$**-$        %-@##;;#Ooo       @@oOO;;;;;;;=%%O:@     ",
"     @@@*****$          -@@#-=#ooo       @@ O#;;;;;;;;;;O:-     ",
"      @@****$           %-@@;;ooo        @@%$#OO;;;;;;#OO:-     ",
"                         @--@@ooo        oo%+%OO######OOO--     ",
"                           -;@@          @@,%% OOOOOOOO%;;-     ",
"                                         @@@,$###;;OoO+;=--%    ",
"                                          @@;<O##;;OOO%=--%@@@-%",
"                                          @@@@$OOOOOO o---@@;;@-",
"                                           ;---*OOO#o*--@ @@;;@-",
"                                             ---.o***--$$  @--- ",
"       @$            $$@o              @%     $------$$         ",
"       O;  @$         --oo             O;                       ",
"           O;         @-**                                      ",
"                       ;;        ooo@    @%                     ",
"                                ooo@@o   O;                     ",
"                               oo%%;;@o            @%           ",
"                               o@%%;;@@            O;           ",
"                                @o%;@@                          ",
"              %@o@o              o@@@                           ",
"              --%%o@                      $$$$$$           @%   ",
"             ---;%%oo                   @@o----<>$         O;   ",
"             -@-;;%oo      @%         @@@@oooooO@-$%            ",
"             %--@@oo       O;       @@@OOOo ;;$oo@--%           ",
"               ----                @@oOOO#OO;;;;$oo;;%          ",
"                                  @@@OOO ;$OO;;;;$$o@-          ",
"                                  @@ OO;;;;oO;;;;;% @-$         ",
"        @%                       @@@ OO$;;;oXOOOOOO o--         ",
"        O;          @ooooo       @@;;OOO;;#OO======O --         ",
"                   ooo@oooo      @@;;=OoX&XOX=;;;;==O--         ",
"                 %-@o;%%%ooo     @@;;;O=::=XO,;;;;<=O*-         ",
"                 --@ ;%;%%oo@    @@;;O=:#:=O=,;;;;;=O*-         ",
"                 --;;##O%%%oo    @@@#O:;;:=XO#;;;;:=O*-         ",
"                 -@;;##O;%%oo     @@#O-<,=OXOXOO#O=O@-          ",
"                 --@ ###$%ooo     @@@#O==OO;$OXooOOo--          ",
"                 $---$## o*o       @@@#OOO$;;$;  o-=-$          ",
"                  $-@-----*         @@@@@ ;;;;;<-*--            ",
"                   $-----;$           @@@@@@<<<<@-$             ",
"                                        ---<<---$$              ",
"                                                           @$   ",
"              @%                                           O;   ",
"              O;                                                ",
"                                                                ",
"                                                                ",
"                                O                               ",
"                                                                ",
"                                                                ",
"                                                                ",
"                                                                ",
"                                                                "
};
